<svg xmlns="http://www.w3.org/2000/svg" width="799" height="799"><path fill="none" d="M0 0h799.998v799.998H0z"/><path fill="#050408" d="M633.778 135.347c.103-.001.206-.01.309-.005 2.995.139 13.4 6.042 15.468 8.324 1.161 1.284.886 3.302.864 4.92 3.352 1.374 13.041 3.748 15.183 5.716 2.846 2.614 2.243 7.909 2.275 11.451 3.719-.11 7.921-1.246 11.58-.696 1.37.206 2.644.732 3.367 2.001 1.428 2.507.327 5.838-.342 8.426 2.05.45 3.915.973 5.74 2.04q.372.22.733.46.361.237.71.493.349.255.685.528.336.272.658.56.321.29.629.593.307.305.6.624.292.318.567.651.276.333.536.679.259.346.501.704.242.359.467.728.224.37.43.75.205.38.392.77.187.391.354.79.167.398.315.805.148.406.275.82t.234.831c.742 2.893.859 6.262.834 9.236-.133 16.099-2.008 32.425-3.06 48.5l-1.97 29.574c-.392 5.185-.625 10.525-1.485 15.652q-.233 1.436-.746 2.798-.512 1.362-1.282 2.596c-1.442 2.31-3.38 4.243-5.84 5.43-5.266 2.54-12.208 3.08-17.981 4.138q-12.069 2.128-24.082 4.545c-.077 3.712-.166 7.181-1.405 10.72 1.668 1.082 3.325 2.22 4.755 3.612 4.094 3.983 6.086 9.53 6.03 15.183q-.003.575-.035 1.148-.03.574-.091 1.145-.06.572-.148 1.14-.088.567-.204 1.13t-.26 1.12q-.144.556-.315 1.105t-.37 1.087q-.198.54-.423 1.07-.225.528-.475 1.045t-.526 1.021q-.277.504-.577.994t-.625.964-.672.932-.718.898q-.37.44-.76.86-.391.422-.803.823c-5.628 5.45-12.138 6.58-19.683 6.47 2.825 5.035 7.248 7.196 11.218 11.13 3.299 3.267 6.26 6.943 9.161 10.564q.154.005.308.009c.17.002.34-.003.512 0 3.71.07 7.326-1.717 11.101-2.033 5.513 2.397 20.703 14.404 25.775 18.88 2.632 2.32 4.933 4.763 5.059 8.444.155 4.568-2.56 8.889-5.673 12.032-3.457 3.49-8.267 6.265-13.287 6.202-5.404-.068-9.624-4.23-13.165-7.866-8.076-8.291-15.938-15.458-15.77-27.779l-4.827-5.321c.352 9.038 1.223 48.664-.841 55.133-1.85 5.795-6.355 8.922-11.473 11.561.013 2.68-.27 6.087.76 8.607 2.303 5.639 6.274 11.165 9.313 16.5l19.173 34.193 79.83 143.926c3.292 5.944 21.964 37.72 22.864 41.55.18.762.178.839-.23 1.529-4.752 1.588-18.202.672-23.804.644l-73.683-134.757c-6.661-12.267-13.514-24.444-20.047-36.777-4.719-8.908-9.078-18.316-14.428-26.85l.216 194.692-.037 41.44c0 7.678.61 15.972-.43 23.57l-.474.067.106.487.268-.16-.202.323c-3.707 1.222-29.28.585-34.71.449-1.005-9.385-.285-19.869-.275-29.39l.232-60.275-.075-100.172q-.313-32.681-.01-65.362c-10.788 20.435-20.4 41.745-30.365 62.602l-37.95 78.204-16.272 33.21c-3.115 6.31-6.074 12.805-9.508 18.945-6.576.054-13.92.78-20.426-.1-.64-1.56-.047-2.333.708-3.728 3.474-6.411 6.28-13.5 9.435-20.108l21.227-43.984q35.27-71.385 69.339-143.35c2.827-5.994 5.575-12.049 8.54-17.972 1.696-3.385 4.05-6.864 5.153-10.484.657-2.16.243-5.6.218-7.896-4.494-1.707-8.17-4.071-10.868-8.143-.751-7.458-.115-15.506-.138-23.03-.033-10.85-.58-21.96-.02-32.783.092-1.767.215-3.73.864-5.382 1.334-3.399 5.968-4.954 9.013-6.301-.01-5.666-.279-9.839-2.377-15.18-5.632.281-18.68 3.204-23.378.657-2.44-1.321-4.07-4.32-4.793-6.898-.797-2.838-.893-6.19.676-8.795 3.058-5.079 10.82-3.449 15.824-3.524 2.107-.032 4.118-.39 6.168-.834-.94-6.786-2.57-13.48-4.043-20.167q-6.973-.808-13.755-2.615c-1.578.498-3.15.955-4.774 1.28-2.395.478-4.9.727-7.335.464-5.992-.645-16.586-4.917-21.485-8.355-3.07-2.155-4.557-4.337-5.23-7.987-1.71-9.294-.384-19.478.198-28.857l1.927-30.815c.665-10.646.484-22.812 2.452-33.187.945-4.985 2.97-9.957 5.89-14.114 1.994-2.838 4.744-5.866 7.853-7.477 7.48-3.875 31.602-6.157 41.317-7.907 1.434-8.258 4.965-22.43 9.26-29.48 3.004-4.931 6.688-7.227 12.16-8.576.204-2.55.625-5.1.97-7.635 10.409-1.237 20.99-2.239 31.457-2.787"/><path fill="#5D5B5C" d="M630.465 374.387c4.299 2.487 9.183 12.042 12.915 13.072l.082.626.146-.375-.896.722c-.659.656-1.139 1.275-2.111 1.401-1.459-.446-2.556-1.296-3.64-2.36-3.627-3.561-6.488-7.946-6.496-13.086M675.285 168.134c1.804-.259 3.715-.175 5.539-.212-.405 4.49-1.28 8.884-3.791 12.699-1.176.433-2.35.654-3.58.886-1.947.33-3.884.782-5.818 1.183.27-4.668.175-9.362.173-14.037zM674.356 403.943c.894-.036 1.766-.034 2.653.11 2.02.331 4.26.996 5.484 2.762 1.097 1.583 1.181 3.603.82 5.439-.987 5.021-4.93 8.632-8.962 11.368-.99.476-2.073 1.087-3.21.857-1.636-.33-2.949-1.675-3.687-3.11-1.492-2.894-1.701-6.922-.685-9.994 1.308-3.953 4.053-5.714 7.587-7.432M639.56 329.766c1.64-.164 3.21-.44 4.565.746 2.284 2 2.985 5.207 3.138 8.105.234 4.434-.768 9.89-3.926 13.206-1.559 1.637-2.786 1.503-4.946 1.52-.132-.035-.265-.067-.395-.106-2.933-.905-5.144-2.598-6.482-5.425-1.518-3.207-1.508-7.218-.145-10.473 1.62-3.871 4.48-5.96 8.191-7.573M576.78 187.235c5.015-.886 16.915 4.213 22.618 5.736-9.568 1.911-19.633 2.964-29.003 5.556-2.348.61-18.986-5.017-22.275-6.445 7.135-2.342 20.686-3.59 28.66-4.847M631.794 138.445c1.717-.167 3.085-.013 4.691.667 2.002.847 11.206 5.961 11.834 7.526-2.646 1.258-17.86 3.01-21.236 3.108-1.424.042-2.77-.31-4.135-.678-6.325-1.725-12.673-2.89-19.139-3.93.17-1.459.266-2.785.904-4.122 1.712-.745 22.834-2.203 27.081-2.571M624.159 369.512c2.73 2.199 3.878 5.17 4.976 8.38a18.6 18.6 0 0 1-2.612 1.655c-10.232 5.348-25.415 5.083-36.192 1.679-.551-.338-1.17-.715-1.612-1.198-1.87-2.034-1.263-7.505-1.242-10.191 5.364 3.727 11.957 4.774 18.371 4.892 6.536.12 13.402-.449 18.31-5.217"/><path fill="#5D5B5C" d="M585.593 380.76c2.042.83 3.417 2.86 5.72 3.678 11.57 4.116 27.178 2.07 38.106-3.001.793 1.39 2.218 4.045 1.525 5.664-.757 1.775-3.785 2.418-5.452 3.003-8.74 3.379-19.447 4.415-28.737 3.533-3.816-.361-15.082-2.414-17.237-5.658-.609-.915-.71-1.571-.423-2.63.468-1.727 4.903-3.688 6.498-4.588M646.31 150.157c2.573-.676 7.067 2.41 9.527 3.407 1.68.682 3.395 1.113 5.157 1.52-14.478 1.957-28.972 4.17-43.513 5.598.19 10.273.086 20.571.123 30.848l.09 4.997-9.409-4.045c1.004-10.465-1.323-23.525 5.645-32.41 6.335-8.075 22.837-8.738 32.38-9.915M627.653 321.955c5.271-.284 9.727 1.12 13.89 4.265-2.884.718-5.24 1.522-7.642 3.378-3.515 2.717-5.888 6.696-6.284 11.15-.352 3.974.7 8.439 3.454 11.43 2.616 2.841 5.419 3.7 9.152 3.796-1.187.792-2.412 1.498-3.653 2.205q-1.126.494-2.27.947c-3.806 1.493-8.186 2.036-11.995.266-4.44-2.063-7.536-6.512-8.993-11.076-1.776-5.566-1.08-11.783 1.668-16.917 2.807-5.242 7.196-7.763 12.673-9.444M652.567 385.606c.916-.076 1.827-.202 2.715.108 5.41 1.887 15.898 11.606 20.815 15.663q-.11.013-.22.024c-2.953.272-5.325 1.009-7.654 2.926-2.717 2.238-4.204 5.574-4.554 9.03-.485 4.765.99 8.51 3.952 12.124l.186.173-.027.432c-.966.059-1.834-.12-2.742-.441-5.683-2.013-19.729-18.106-22.137-23.65-1.167-2.69-1.735-5.75-.577-8.544 1.745-4.212 6.302-6.228 10.243-7.845"/><path fill="#5D5B5C" d="M602.998 148.577c5.456-.252 11.316 1.174 16.592 2.42l.337.711.359.035.04-.535 1.157.526c-1.467.16-2.735.912-3.97 1.68-9.26 5.758-11.653 17.004-11.593 27.197.018 3.135.593 6.89-.266 9.917-.248.872-.228.691-.911 1.104l-1.708-.454c-6.968-1.625-13.951-3.494-20.414-6.613 2.253-9.283 4.54-22.592 10.302-30.238 2.71-3.593 5.713-5.135 10.075-5.75M663.244 157.575c.56-.106.916-.05 1.475.025.204.396.268.474.379.973.632 2.838.249 24-.277 27.684-.229 1.606-.618 2.838-1.412 4.246-3.174 1.972-34.677 5.337-41.514 6.464l-1.365-.182c-1.443-3.675-.544-27.937-.528-33.677 14.432-1.347 28.878-3.603 43.242-5.533"/><path fill="#050408" d="M655.355 162.634c.449.104.89.284 1.325.435 1.297 3.593-.097 20.008-.339 24.733-9.297.703-18.473 2.583-27.639 4.231l-.733-.152-.375-.671.043.599.07-.79.721-.476-.659.192c5.74-3.482 19.413-4.536 26.525-5.21.073-4.69-.476-19.388 1.061-22.891"/><path fill="#050408" d="M628.042 168.98c6.946-.644 13.644-2.69 20.525-3.657 1.399-.197 3.884-.632 5.083.274l-.102.66c-2.441 2.364-8.765 2.318-12.105 3.258-1.96.553-3.802 1.405-5.692 2.15 1.672.043 3.343-.045 4.904.64.554-.12 1.136-.273 1.708-.287 1.008-.025 2.15.27 2.821 1.059 1.71 2.01.503 7.023.364 9.605-3.182.728-13.412 3.59-16.094 2.711-1.699-2.13-.943-12.79-1.412-16.412"/><path fill="#FAF5E9" d="M635.75 171.665c1.673.043 3.344-.045 4.905.64q-.61.674-1.199 1.366c-1.6 1.893-2.194 2.85-1.977 5.356.058.685.189 1.162-.088 1.818-.556 1.322-4.786 2.005-6.103 2.337l-.035-10.707c1.505-.223 3.002-.53 4.498-.81"/><path fill="#5D5B5C" d="m637.053 311.445.418.009.432.451c.286 2.97-.27 5.88-.836 8.785-2.732-1.01-5.166-1.712-8.137-1.569-5.176.25-10.09 2.9-13.51 6.73-4.297 4.81-6.175 11.495-5.796 17.867.478 8.017 5.021 13.801 10.778 18.893.542 1.598 1.17 3.065 1.047 4.78-.439.967-.812 1.596-1.685 2.231-4.528 3.291-15.163 2.531-20.444 1.706-6.083-.95-10.936-3.373-14.64-8.412 6.533-.92 12.222-.052 17.35-5.11q-.428-6.151-.465-12.317c.008-4.423 1.331-11.78.095-15.822-.242-.792-.057-.521-.81-.908l-.637.52c-.658 1.941-.61 3.944-.675 5.974q-.853 11.263-.244 22.54-1.103.413-2.231.753c-6.391 1.918-13.156 1.431-19.732 1.944-4.302.335-8.804 1.267-13.106 1.143-1.512-.045-3.047-.346-4.368-1.11-1.562-.905-2.631-2.411-3.033-4.164-.465-2.03-.498-5.701.862-7.435 2.658-3.389 13.348-1.437 17.62-2.286 1.92-.381 2.989-1.044 4.068-2.657.99-5.256-2.67-15.766-4.011-21.056 6.637-.714 13.326-2.269 19.899-3.484zM577.709 390.075c3.361 1.822 6.646 3.428 10.318 4.526 13.542 4.053 30.851 2.193 43.282-4.434-.51 11.25-.195 22.623-.207 33.89-.007 5.306.358 10.9-.44 16.143-.257 1.685-.971 3.153-1.709 4.668-.606.889-1.22 1.786-1.962 2.57-5.25 5.544-14.58 6.283-21.754 6.37-7.54.092-20.317-1.15-25.856-6.978-.903-.95-1.28-1.958-1.446-3.24-.73-5.63-.169-11.883-.174-17.592zM585.378 469.024c.914 3.722.265 9.064.246 12.97q-.11 11.121.048 22.242c-5.316 6.516-8.655 15.524-12.311 23.093l-13.92 28.656-45.361 93.627c-7.9 16.152-15.493 32.582-24.057 48.39-4.933.703-9.863.843-14.834.831-.264-3.268 62.751-130.677 70.862-147.474zM542.518 192.888c3.364.395 8.378 3.026 11.784 4.154 4.08 1.35 8.293 2.264 12.479 3.22-3.152 2.93-5.87 6.352-7.011 10.586-1.863 6.91-1.574 15.03-1.852 22.169q-.51 14.037-1.221 28.065-.894 17.3-1.993 34.59c-.424 6.484-1.128 13.062-1.247 19.551-.022 1.268.394 1.996.992 3.07l.228.398c-1.402 1.307-4.751.843-6.666.843-1.526-.232-3.078-.462-4.573-.847-5.16-1.325-16.955-5.542-19.45-10.403-1.643-3.199-1.636-9.543-1.632-13.093.015-11.61 1.548-23.492 2.32-35.09l1.448-23.053c.503-9.213.033-19.86 3.115-28.597 2.42-6.857 6.712-12.331 13.28-15.563"/><path fill="#050408" d="M523.774 298.65c2.811.208 17.226 4.722 18.941 6.69.77.882.5 1.297.35 2.387-.115.013-.23.037-.346.037-1.961.006-17.302-5.986-18.593-7.25-.495-.485-.323-1.21-.352-1.864M531.251 214.271c.125.009.25.015.377.026.208.018.417.042.626.061 5.03.453 9.95 2.598 14.978 3.459q.099 16.671-1.126 33.299c-.307 4.804-.321 9.927-1.207 14.655-5.109-.477-11.672-2.526-16.417-4.548.601-15.567 1.34-31.45 2.769-46.952"/><path fill="#5D5B5C" d="M533.306 217.225c3.789.708 7.449 1.903 11.13 3.03.377 14.135-.832 28.46-1.551 42.58-3.856-.913-7.6-2.298-11.327-3.63.595-13.995 1.419-27.974 1.748-41.98"/><path fill="#050408" d="M536.702 226.075c1.372.025 3.008-.07 4.014 1.049 2.308 2.57.383 9.178-.14 12.262-4.452-2.012.027-6.512-2.161-9.571-.754-.046-1.24-.105-1.917-.448-.42-1.172-.076-2.132.204-3.292"/><path fill="#5D5B5C" d="M621.53 467.52c1.799 2.298 3.167 5.348 4.572 7.917l8.346 15.268 26.382 47.335q44.988 79.653 88.632 160.05l-18.084-.023c-7.833-12.778-14.256-26.377-21.546-39.453l-61.92-112.74c-8.853-16.166-17.196-32.685-26.52-48.583-.004-9.913-.166-19.864.138-29.771M588.664 454.49c9.949 2.697 19.936 2.715 29.937.317-.319 11.522-.132 23.078-.156 34.603l-.043 67.184-.149 202.823-.081.628c-1.16.859-25.913.691-29.284.734-.4-12.284-.132-24.683-.18-36.98l.082-87.302zM681.876 178.008c2.359.193 4.472 1.495 6.236 3.004 3.907 3.34 5.738 7.88 5.996 12.908.764 14.915-1.615 31.832-2.594 46.846l-1.977 31.051c-.354 5.524-.451 11.23-1.223 16.704-.285 2.015-.885 6.028-2.306 7.468-.106.106-.218.205-.326.31-.917.893-1.821 1.777-2.869 2.52-1.846 1.31-3.736 1.91-5.908 2.428-6.593 1.576-13.455 2.412-20.133 3.573-8.156 1.417-16.258 3.13-24.385 4.705l-35.751 6.819c-6.619 1.251-13.375 2.832-20.066 3.593-3.762.43-7.639.137-11.357-.526-3.032-.744-5.92-1.903-8.759-3.181-.097-7.944.663-15.942 1.187-23.864q.8-13.06 1.448-26.13c.88-16.388.757-33.155 2.567-49.454.604-5.438 1.847-10.067 6.385-13.586 1.608-1.247 3.307-2.032 5.242-2.625 4.83-1.482 29.243-5.925 33.629-5.407 4.275.504 7.985 3.846 12.363 4.299 4.528.47 10.016-1.063 14.57-1.607 8.62-1.032 17.438-1.597 25.966-3.228 1.625-.31 4.037-.601 5.306-1.716 2.176-1.912 2.374-5.423 2.606-8.11 2.699-.467 5.655-.328 8.284-1.065 3.3-.923 4.348-2.908 5.87-5.729"/><path fill="#050408" d="M678.69 191.543c1 .08 2.063.128 2.983.563 2.085.985 3.588 2.943 4.334 5.086.732 2.1.66 4.52.6 6.72-.39 14.498-2.176 29.035-3.238 43.501-.914 12.458-1.09 25.22-2.53 37.607-.261 2.246-.69 4.786-1.767 6.786-.685 1.271-1.883 2.174-3.232 2.635-5.414 1.853-17.746 3.532-23.909 4.72-16.645 3.21-33.326 6.086-50.004 9.115-9.591 1.741-19.239 3.284-28.709 5.61-1.564.334-3.624.98-5.142.18-1.548-.817-2.333-2.451-2.602-4.096-.774-4.73.063-10.312.324-15.084q.69-11.94 1.241-23.887l1.561-35.352c.256-5.555.176-11.28.819-16.796.296-2.54.778-4.978 2.372-7.052 1.258-1.636 2.894-2.828 4.902-3.346 6.029-1.554 12.778-2.104 18.969-3.037 10.118-1.526 20.216-3.362 30.357-4.702 6.043-.797 12.172-1.11 18.197-2.002 2.683-.397 5.307-1.198 7.949-1.805 8.66-1.993 17.704-4.411 26.525-5.364"/><path fill="#E17063" d="M642.475 259.265c1.037.409 1.476.74 2.19 1.595-.303 1.23-2.478.825-3.56 1.73.77 1.11 2.932.684 3.996 1.429.196.137.346.329.52.494-1.018.571-1.798 1.126-3.014 1.03-.992-.436-1.923-.824-2.511-1.812-.545-.916-.437-1.743-.26-2.736.677-1.095 1.496-1.304 2.639-1.73M645.543 267.292l1.044.335c2.014 2.118 2.589 6.587 3.103 9.395.535 2.923 2.875 16.653 2.018 18.616-.169.388-.48.695-.721 1.042-2.107-2.312-1.32-16.468-3.225-20.786-1.075-2.433-2.38-4.956-2.95-7.559zM611.28 258.405c2.166.351 7.922 1.154 9.33 2.49.2 1.861-1.619 2.328-2.669 3.577-.727.864-1.043 2.021-1.746 2.94-.31-1.228-.506-2.263-.494-3.533.473-.577.853-.983 1.041-1.726.149-.586-.041-.676-.305-1.17-1.157-.1-1.568.422-2.521 1.047l-.143.327c-.218.022-.435.059-.653.065-.443.013-.795-.096-1.242-.005-1.112.23-1.263.603-1.75 1.51.733 2.13 3.524 1.677 4.94 3.058-1.752.628-3.567.635-5.407.752-.658-1.413-1.123-2.931-1.638-4.403.965-1.84 1.922-3.326 3.257-4.93"/><path fill="#FAF5E9" d="m637.684 271.965.396.055c.183.278.297.411.383.77.438 1.829.642 6.026-.326 7.598-.586.953-1.12.988-2.114 1.191-1.638-.357-2.809-1.554-4.077-2.59-1.929-1.837-3.53-3.926-5.181-6.008 3.882.127 7.177.16 10.919-1.016M623.327 203.67c8.128-1.49 18.32-3.45 25.558 1.52 3.279 2.252 6.83 6.75 7.529 10.81.219 1.273.175 2.504-.054 3.767l-.45.2c-1.605-2.167-2.352-4.757-3.733-7.043-3.566-5.902-11.288-8.25-17.681-9.211-3.674-.553-7.75.22-11.434.629zM652.129 264.116c.794.315 1.157.773 1.595 1.493 3.495 5.738 6.452 22.254 5.114 28.613-.934.771-1.98.792-3.147 1.007l-.643-.003c-1.075-1.485-1.29-10.886-1.667-13.414-.835-5.596-2.028-10.78-4.144-16.03z"/><path fill="#E17063" d="M610.983 270.502c1.849-.186 3.82-.378 5.579.298 4.93 4.423 9.012 17.511 10.467 23.9.524 2.3 1.165 4.532-.159 6.623-2.41-2.256-7.727-14.747-9.906-18.702-2.047-3.712-5.414-7.655-6.591-11.687z"/><path fill="#FAF5E9" d="M622.7 252.165c3.588 1.52 6.482 4.662 10.23 6.21l3.744 1.576c-.662.545-.823.5-1.045 1.37.17.121.331.253.508.363.208.131.43.24.645.36-.404 1.66-1.013 3.52-.865 5.234a9.1 9.1 0 0 1-.077 2.38l-.776.571c-4.34.3-8.419.278-12.75-.213l-2.95-2.83 2.845-2.99c-.199-3.688-.407-8.472.49-12.031M607.602 271.127l.357.111c1.928 4.746 4.79 9.247 7.207 13.767 2.889 5.399 5.49 10.926 8.086 16.47-3.643.656-7.349 1.504-11.032 1.842-.354-3.156-.813-6.176-1.813-9.201-2.693-8.142-7.692-13.917-15.284-17.796a101 101 0 0 1 12.479-5.193"/><path fill="#FAF5E9" d="M639.083 267.073c.465.229.95.542 1.335.894 5.064 4.62 6.547 22.206 6.856 28.68q-8.128 1.998-16.336 3.635c-.724-3.888-1.7-7.643-2.76-11.448-1.53-4.77-5.279-11.371-5.723-16.075l.399-.41c2.855 1.438 7.044 7.68 10.554 10.08 1.344.92 2.977 1.912 4.661 1.491.914-.229 1.444-.988 1.816-1.807 1.225-2.698 1.199-9.364.046-12.04-.331-.769-.597-1.393-.733-2.227-.042-.257-.077-.515-.115-.773M592.626 278.1c2.563.695 5.033 2.243 7.026 3.986 6.364 5.566 8.82 13.894 9.401 22.036l-8.368 1.489q-7.414 1.207-14.797 2.585c-.083-9.231 1.58-22.202 6.738-30.097M649.427 214.745c.167.175.346.341.503.526 2.96 3.495 4.458 9.051 4.277 13.504-.324 7.972-1.528 18.522-7.823 24.064-2.629 2.316-5.881 3.795-9.435 3.517-5.015-.395-9.303-3.646-12.522-7.285-.773-1.36-1.15-2.391-1.303-3.97-.267-2.782-.349-3.759-2.174-5.84 2.23-2.087 9.509-8.374 12.119-9.065-.143.354-.34.817-.43 1.18-.27 1.085-.258 1.348.232 2.283.47.21.577.286 1.132.386 1.152.206 3.122-.547 4.024-1.225 1.259-.946 1.112-3.13 1.32-4.643l-.667-.44c-.687.035-2.44.256-2.968-.143l1.187-.521-.754.051c.804-1.07 2.634-2.125 3.713-2.978 3.547-2.799 6.983-5.657 9.57-9.401"/><path fill="#050408" d="M643.094 238.342c.099.023.2.04.298.07 1.228.385 2.613 1.012 3.226 2.143l-.784 1.387c-.743-.005-1.54.023-2.273-.097-.963-.158-1.435-.477-2.014-1.224.191-1.278.62-1.42 1.547-2.28M635.616 244.037c4.893 1.285 7.193-.195 11.23.454.577.82.347 1.21.266 2.167-.493.198-.986.36-1.501.487-2.502.62-7.164.985-9.294-.712-.948-.756-.734-1.303-.7-2.396M649.16 227.578c.394.038.79.066 1.178.135 1.13.202 2.02.96 2.562 1.958.448.825.372 1.971.008 2.823-.5 1.17-1.54 1.566-2.611 2.091-.855.089-1.611.072-2.47.05-.838-.52-1.254-.666-1.389-1.752-.224-1.816 1.533-4.11 2.723-5.305"/><path fill="#FAF5E9" d="M627.159 206.378c5.513-.585 14.344.445 18.686 4.283.807.714.94 1.185 1.043 2.222-2.729 6.662-15.962 15.106-22.02 19.284-2.52 1.74-5.984 3.703-7.862 6.134-.651.843-.746 1.304-.658 2.338 1.008 1.063 2.162 1.061 3.426 1.759.284 2.308 1.262 4.976.767 7.274-.247 1.152-.947 2.227-2.054 2.717-.852.378-1.826.33-2.698.055-1.902-.6-2.967-1.832-3.86-3.546-2.202-6.135 4.378-12.136 3.45-16.402l-.683-.408c-.787.19-1.041.343-1.618.96-3.139 3.37-3.747 9.533-4.051 13.854-.072 1.016-.507 1.452-1.194 2.135-.621-.021-.904.094-1.416-.324-1.673-1.37-2.422-4.053-2.693-6.11-1.136-8.677 4.4-21.87 9.553-28.675 3.766-4.973 7.847-6.711 13.882-7.55M677.76 194.276c.95-.145 1.593-.13 2.487.279 1.557.71 2.71 2.613 3.143 4.198 1.228 4.475-2.899 50.08-3.405 57.21-.684 9.65-.828 19.664-2.02 29.246-.203 1.625-.514 3.401-1.405 4.809-2.056 3.253-10.67 3.522-14.432 4.247-.003-6.724-.395-13.068-1.94-19.627q-.519-1.68-1.065-3.35c-2.853-8.674-5.929-10.106-13.68-14.029 10.507-8.617 10.406-14.793 11.42-27.756.202-2.584-.06-4.818 1.223-7.164 1.594-2.914 2.099-5.762 1.18-9-1.537-5.422-6.641-9.604-11.358-12.303 9.797-3.023 19.733-5.13 29.853-6.76"/><path fill="#FAF5E9" d="m623.327 203.67-.265.672c-3.944.896-7.089 2.68-9.91 5.597-6.947 7.18-12.878 21.623-12.578 31.646.189 6.276 3.905 12.468 8.399 16.65-1.137 1.194-2.221 2.403-2.975 3.883-.75 1.474-1.205 3.063-.597 4.66.388 1.023.214.362.419 1.44-4.304 3.215-10.838 3.82-14.723 7.623-6.618 6.479-8.168 24.156-8.337 32.945-4.175.884-9.29 2.534-13.54 1.998-.559-.482-.83-.643-.939-1.428-.612-4.406.245-9.847.455-14.3q.552-14.061 1.291-28.113c.444-8.796 1.035-17.598 1.323-26.4.24-7.313.165-14.829.92-22.107.2-1.92.861-3.537 1.942-5.133.37-.547 1.265-1.743 1.86-2.046 1.607-.814 26.816-4.026 30.746-4.633q8.292-1.267 16.51-2.954"/><path fill="#050408" d="M328.475 33.364q.504-.075 1.01-.116c3.763-.279 7.627-.176 11.348.461 9.918 1.7 33.136 9.765 40.436 16.233 5.07 4.491 8.264 10.35 9.364 17.03 1.232 7.48.415 19.697.401 27.648l.07 52.982.035 178.348-.112 49.476c-.016 9.118-.285 18.348.274 27.449 1.205-1.134 2.414-2.331 3.757-3.3 4.262-3.07 9.462-.452 14.293-2.518 8.19-3.505 18.698-13.907 26.468-15.516 3.045-.63 6.431-.201 9.464.368 11.037 2.073 18.385 7.382 24.61 16.568l.382.098.634.17c2.124.545 3.754 1.136 5.45 2.583 2.094 1.788 3.525 4.248 3.644 7.039.158 3.684-1.678 6.312-4 8.929 1.12 4.465.699 7.25-1.203 11.443-1.933 4.26 1.207 6.049-2.18 10.904-4.435 6.361-14.188 9.405-21.422 10.859-.48 8.25-5.255 7.725-5.814 9.982-.623 2.513 1.29 5.304-.128 8.048-.69 1.335-1.753 2.906-3.292 3.286-.576.143-.884.203-1.414.48-.108 1.806 1.549 3.443 1.423 5.415-.144 2.267-.923 3.558-2.594 5.024l-.59.511c-3.485 3.075-.177 4.9-1.223 8.402-.746 2.494-4.357 3.971-4.885 5.975-.509 1.928-.215 4.655-.345 6.728-1.491 2.32-3.272 3.837-5.504 5.38.708 1.586.884 2.745.689 4.49-.53 4.732-3.188 3.75-5.864 6.523-1.166 1.207-.043 4.21-.29 5.865-.404 2.695-3.445 4.386-5.385 5.974-.776 1.523-.332 3.175-.421 4.82-.287 5.33-5.808 5.065-6.336 6.944-.75 2.667.183 5.241-2.395 7.257-2.072 1.62-5.419 2.491-8.006 2.108-1.084-.16-1.714 3.39-2.088 4.243-.782 1.783-3 3.037-4.572 4.07l.05 72.28c.06 12.108 1.27 30.623-.82 42.06q-.308 1.611-.704 3.202-.394 1.591-.875 3.158-.48 1.567-1.046 3.106-.565 1.54-1.213 3.045-.648 1.506-1.377 2.974-.728 1.469-1.535 2.895-.808 1.428-1.692 2.808-.883 1.381-1.84 2.712c-7.141 9.89-16.77 18.126-28.168 22.66-10.215 4.063-27.962 5.417-39.606 7.305-34.912 5.66-69.952 10.524-104.846 16.313l-92.116 14.334c-7.041 1.04-14.02 2.621-21.08 3.503-9.298 1.16-16.249-.934-24.87-4.047-4.284-1.547-8.308-2.938-11.927-5.796-7.06-5.58-12.498-15.614-13.47-24.537-1.043-9.577-.453-19.716-.459-29.358l-.024-52.552.149-180.375-.193-245.583.062-69.48-.079-21.146c-.024-4.532-.24-9.164.215-13.674 1.228-12.2 6.443-23.723 14.132-33.212 7.292-9 17.865-16.612 28.96-20.09 7.628-2.39 15.838-2.68 23.725-3.817q32.806-4.536 65.696-8.416L289.45 38.253c13.012-1.606 25.984-3.522 39.024-4.89"/><path fill="#FAF5E9" d="M295.713 506.304c.184.281.256.368.396.718.575 1.429 1.579 4.717.87 6.15l-.783-.421-3.27-3.646z"/><path fill="#FFE1D1" d="M356.53 469.235c1.908-.925 4.985-2.988 7.096-2.272.076 1.129-.504 1.972-1.252 2.82-.894 1.012-.958.884-2.207.925-1.19.04-2.37-.002-3.55.175z"/><path fill="#E17063" d="M391.469 411.48c-1.649-2.028-3.058-2.644-5.144-4.026l-.037-.72c1.172-1.237 2.833-2.198 4.556-2.271 1.289 1.063 1.313 4.377 2.29 6.097q.105.184.213.365c-.614.174-1.293.308-1.878.554M362.748 438.409c.411-.15.845-.12 1.28-.139 1.41.953 2.271 2.626 3.197 4.03-3.667-1.205-6-1.67-9.868-1.315-1.969.118-3.381.389-5.317-.178.824-1.013 8.982-2.096 10.708-2.398"/><path fill="#FAF5E9" d="M443.5 402.568c.818.293 2.872 2.147 3.529 2.02 1.175-.227 2.192-.795 3.407-.963 1.834-.253 3.652-.465 5.196.706l-.099.559-1.588.262q-.114.03-.227.063c-4.383 1.278-8.953.268-13.764 1.414 1.1-1.44 2.308-2.743 3.546-4.061"/><path fill="#E17063" d="M366.864 419.905c.912-.032 1.952-.127 2.852.02 1.242.202 1.907 1.075 2.563 2.041.76 1.121 1.605 2.079 2.522 3.073l-5.757-.537c-2.733-.31-5.515-.294-8.264-.359 1.914-1.73 3.784-3.073 6.084-4.238"/><path fill="#FAF5E9" d="m466.071 416.593.258.164c-1.551 2.167-3.586 4.3-5.478 6.176-1.539 1.527-2.964 2.827-5.21 2.792l-.845-.607c-.39-.928-.611-1.2-.151-2.191 1.055-2.273 5.853-4.6 8.225-5.223 1.018-.267 1.916-.546 2.882-.968z"/><path fill="#E17063" d="M405.164 400.047c1.776-.296 3.947-.272 5.431.89 1.173.917 1.852 2.323 1.93 3.802.139 2.572-.905 4.383-2.578 6.21-1.09.519-1.915.94-3.112.755-.327-1.594.736-3.932 1.133-5.546-.688-2.16-2.047-3.97-2.804-6.11"/><path fill="#FAF5E9" d="m450.89 424.208.53.214c-1.18 1.191-2.645 2.001-3.835 3.2-1.928 1.94-3.676 4.28-5.749 6.051-1.006.86-1.434.942-2.724.832-.312-.308-.605-.581-.879-.93-.568-.728-.707-1.508-.516-2.411.473-2.238 2.864-3.896 4.57-5.183 3.295.031 5.588-.577 8.603-1.773"/><path fill="#E17063" d="M375.676 414.474c.9-.018 1.804.016 2.704.033 1.492.994 2.488 4.968 3.74 6.636.095.126.2.243.302.365-.47 1.217-1.66 1.948-2.644 2.746-1.716-.004-3.145-.859-4.327-2.051-1.207-1.218-1.899-2.865-1.818-4.59.07-1.523.988-2.206 2.043-3.14M382.72 410.082c1.46.157 2.81.323 4.107 1.058 1.667.944 4.033 2.567 4.305 4.67.16 1.232-.67 1.647-1.459 2.388-.76.195-1.61.468-2.392.513-1.348.079-2.648-.596-3.681-1.415-1.23-.978-1.965-2.25-2.109-3.823-.137-1.51.342-2.278 1.228-3.391M373.501 545.78c1.118-.092 2.361-.23 3.467.03 1.302.307 2.583 1.249 3.158 2.47.377.798.411 1.631.14 2.464-.631 1.937-2.019 2.72-3.734 3.614-1.104.174-2.203.228-3.305-.019-1.277-.286-2.544-1.262-3.11-2.452-.455-.961-.456-2.066-.116-3.06.606-1.769 1.928-2.282 3.5-3.047M357.276 473.793c.882.093 2 .274 2.75.758.988.64 1.575 1.847 1.712 2.988.197 1.636-.496 3.347-1.6 4.545-1.29 1.4-2.526 1.424-4.316 1.451-2.31-.674-3.873-2.924-5.39-4.684 2.087-2.37 3.915-3.805 6.844-5.058"/><path fill="#FAF5E9" d="M417.75 444.418c1.6 3.31 2.943 10.113 2.397 13.79-1.352 1.874-4.307 2.04-6.424 2.435-1.122.003-2.17.063-3.246-.315 3.06-5.285 5.13-10.169 7.273-15.91"/><path fill="#E17063" d="M352.582 485.985c1.223-.01 2.512.037 3.69.393 1.377.416 2.915 1.687 3.554 2.984.492 1 .585 1.752.252 2.823-.496 1.594-2.066 2.47-3.485 3.078-1.756.387-3.603.486-5.39.669-.391-.695-.805-1.38-1.159-2.096-.78-1.58-1.274-3.59-.525-5.283.65-1.47 1.678-1.985 3.063-2.568M411.495 519.084c.593.03 1.193.046 1.775.18 1.824.417 3.532 1.542 4.481 3.17.73 1.25.996 2.715.549 4.116-.574 1.796-1.753 2.83-3.375 3.67q-.303-.044-.604-.092c-2.37-.405-4.343-1.807-5.607-3.854-.756-1.223-1.07-2.791-.631-4.186.53-1.69 1.957-2.264 3.412-3.004M361.81 523.823c.526-.064.696-.11 1.271-.052 1.088.108 2.892.995 3.426 1.92.624 1.082.464 2.312.065 3.43-1.085 3.043-2.932 3.92-5.639 5.274-.663-.021-1.302-.011-1.918-.29-1.382-.624-2.703-1.888-3.117-3.37-.365-1.307-.045-2.689.601-3.854 1.141-2.063 3.232-2.406 5.31-3.058M354.069 498.514c.51.003.613-.014 1.17.09 1.271.236 2.776 1.158 3.4 2.29.758 1.374.482 2.848-.025 4.246-.868 2.392-2.695 3.174-4.869 4.153-1.123.06-2.294.084-3.297-.515-1.116-.668-1.893-1.832-2.192-3.086-.4-1.67.07-3.555 1.043-4.951 1.175-1.685 2.863-1.934 4.77-2.227M406.51 529.984c.217.031.44.033.65.094 1.968.57 4.608 2.227 5.434 4.145.499 1.157.637 2.433.134 3.617-.79 1.859-2.26 2.661-4.063 3.34-2.245-.65-5.577-1.69-6.79-3.881-.499-.903-.66-1.743-.338-2.746.715-2.229 3.08-3.47 4.974-4.57M366.53 534.803c.776.222 1.59.443 2.296.84 1.398.79 2.325 2.159 2.748 3.686.4 1.441.277 2.917-.563 4.184-.999 1.507-2.604 2.25-4.31 2.607-.842-.165-1.71-.321-2.525-.59-1.322-.438-2.721-1.649-3.225-2.967-.462-1.21-.468-2.339.03-3.528 1.052-2.514 3.18-3.323 5.55-4.232M417.262 506.51c2.042.894 4.382 1.722 6.01 3.283.964.925 1.84 2.14 1.694 3.55-.22 2.146-1.875 3.597-3.47 4.83-.824.15-1.708.236-2.544.173-1.41-.106-2.865-.653-3.81-1.736-.998-1.145-1.327-2.693-1.219-4.178.187-2.586 1.419-4.296 3.34-5.922M435.482 458.49c.227-.004.454-.012.68-.013 2.077-.004 4.09.625 5.55 2.141 1.033 1.072 1.692 2.48 1.592 3.989-.148 2.244-1.289 3.522-2.957 4.888q-.449.044-.899.071c-2.053.12-4.272-.175-5.804-1.678a4.63 4.63 0 0 1-1.422-3.472c.043-2.454 1.55-4.341 3.26-5.926M356.705 511.339c.743.013 1.543.13 2.26.318 1.36.356 2.63 1.24 3.203 2.556.656 1.507.25 3.268-.5 4.663-1.098 2.041-2.878 2.497-4.914 3.184-.86.167-1.599.26-2.442-.068q-.257-.097-.501-.22-.245-.123-.475-.271-.231-.148-.445-.319-.214-.17-.41-.364-.194-.192-.369-.403-.173-.212-.325-.44-.15-.229-.277-.472t-.227-.497c-.575-1.43-.426-2.968.214-4.347 1.036-2.231 3.075-2.617 5.208-3.32M430.91 470.642c.219.015.439.026.658.047 2.543.244 5.091 1.414 6.618 3.496.896 1.222 1.285 2.614.948 4.11-.41 1.824-1.483 2.99-3.005 3.982-3.175-.519-5.765-1.047-7.702-3.864a4.48 4.48 0 0 1-.696-3.553c.414-1.9 1.622-3.165 3.178-4.218M426.558 483.142c.46-.038.769-.08 1.213-.067 2.038.057 4.566 1.204 5.919 2.746.968 1.106 1.578 2.535 1.427 4.022-.211 2.057-1.273 3.239-2.826 4.48-.289.028-.579.057-.869.073-2.182.117-4.47-.586-6.051-2.136-1.13-1.105-1.762-2.547-1.706-4.134.077-2.2 1.314-3.606 2.893-4.984M440.961 446.094c.86-.017 1.743-.048 2.6.04 1.71.174 3.353 1.081 4.321 2.51.736 1.086.905 2.365.607 3.63-.5 2.123-2.084 3.543-3.817 4.71-.88.148-1.799.187-2.687.069-1.609-.217-3.068-.834-4.018-2.198-.881-1.264-1.077-2.771-.695-4.25.542-2.098 1.884-3.433 3.69-4.51M246.603 305.481c.436-.024.872-.054 1.308-.054 1.899-.001 4.053.657 5.361 2.095.92 1.012 1.158 2.25 1.027 3.573-.275 2.756-2.149 4.018-4.109 5.653-.6.638-1.4 1.61-2.18 1.975-.93.434-1.42.139-2.261-.225-1.262-1.677-1.398-3.736-1.32-5.783.098-2.654.148-5.374 2.174-7.234M398.572 540.267c1.488.03 2.623.257 3.979.896 1.632.77 3.132 1.924 3.703 3.705.352 1.1.21 2.47-.46 3.438-1.273 1.835-3.24 2.33-5.302 2.828q-.171-.008-.342-.017c-3.19-.21-5.5-3.832-7.501-6.083 1.818-2.392 3.077-3.642 5.923-4.767M422.444 494.387c2.418.714 5.449 2.002 6.946 4.102.78 1.093 1.051 2.227.79 3.56-.406 2.07-2.337 3.477-4.025 4.462-.41.031-.813.032-1.224.004-1.986-.138-4.209-.9-5.473-2.516-.962-1.23-1.249-2.725-1.005-4.25.4-2.496 2.06-3.935 3.991-5.362M393.347 410.925l1.144-.261c.538-1.245.167-2.206-.031-3.53-.244-1.633.066-2.922 1.041-4.272.737-1.02 1.757-1.793 3.03-1.947 1.398-.167 3.077.408 4.083 1.38 1.22 1.18 1.708 2.94 1.632 4.605-.095 2.05-1.082 3.906-2.624 5.245-1.339 1.163-3.014 1.807-4.796 1.665-2.117-.17-3.775-.958-5.357-2.33.585-.247 1.264-.381 1.878-.555M469.707 401.858c.448-.041.72-.08 1.191-.048 1.893.13 3.585 1.216 4.695 2.73q.221.309.41.639t.341.678q.153.348.269.71.115.362.192.734.077.373.113.751.038.378.035.759-.003.38-.046.757-.043.378-.125.749c-.475 2.152-1.77 3.217-3.593 4.275-.748.052-1.47.08-2.218.03-1.38-.094-2.337-.754-3.183-1.802-1.365-1.688-1.735-3.68-1.509-5.802.28-2.61 1.447-3.575 3.428-5.16M275.178 376.59c.616.026 1.213.12 1.814.25 1.705.372 3.307 1.272 4.225 2.805.762 1.27.804 2.8.413 4.195-.774 2.754-2.696 3.898-5.063 5.193-1.13.2-2.147-.088-3.188-.524-1.547-.648-2.576-1.645-3.18-3.225-.675-1.762-.5-3.831.334-5.51.969-1.95 2.674-2.59 4.645-3.184M274.645 407.48c1.066-.082 2.183-.202 3.247-.074 1.53.185 2.89 1.092 3.806 2.31 1.011 1.345 1.324 3.018.98 4.655-.527 2.502-2.049 3.876-4.09 5.25-.968.213-1.972.344-2.952.104-1.631-.401-3.227-1.95-3.986-3.403-.83-1.59-1.107-3.724-.54-5.445.593-1.798 1.967-2.52 3.535-3.397M269.172 361.206c1.065.223 2.116.482 3.126.895 1.974.808 3.491 2.575 4.286 4.529.586 1.44.668 3.005.014 4.436-.85 1.86-1.833 2.702-3.672 3.383-.906.132-1.896.318-2.807.17-1.437-.235-2.869-1.2-3.73-2.355-1.115-1.5-1.338-3.447-1.074-5.253.382-2.612 1.838-4.242 3.857-5.805M386.351 547.285c.855-.051 1.72-.118 2.571.025 1.942.324 3.894 1.883 4.915 3.528.919 1.48 1.251 3.305.732 4.99-.57 1.85-2.114 2.809-3.692 3.732-1.158.162-2.413.403-3.576.18q-.315-.063-.622-.158t-.603-.222-.577-.285q-.28-.157-.543-.343-.263-.185-.505-.397-.243-.212-.46-.448-.22-.236-.412-.494-.193-.257-.358-.533-.163-.277-.296-.568-.135-.291-.24-.593-.104-.304-.178-.615-.075-.311-.118-.63-.043-.316-.055-.637-.012-.32.009-.64.02-.319.072-.635.051-.317.134-.626c.608-2.34 1.773-3.437 3.802-4.631M201.846 382.45c1.032-.017 2.047-.02 3.057.231 2.166.54 4.226 2.15 5.302 4.106.753 1.37 1.028 2.92.564 4.435-.588 1.917-2.004 2.825-3.683 3.726-1.022.227-2.219.486-3.258.278-1.756-.35-3.348-1.694-4.271-3.187q-.2-.32-.367-.66-.166-.339-.298-.693-.13-.354-.225-.72-.096-.365-.153-.739-.057-.373-.076-.75t0-.755.076-.75.152-.74c.51-1.903 1.544-2.795 3.18-3.781M228.588 411.015c1.354-.157 2.843-.414 4.168.013 1.876.604 3.603 2.074 4.388 3.893q.112.255.198.522.086.265.144.539t.088.551.03.558-.027.558-.085.551-.141.541-.196.523c-.837 1.925-2.605 2.57-4.422 3.333-1.012.053-2.021.101-3.02-.107-1.937-.404-3.92-1.853-4.928-3.55-.757-1.276-.993-2.805-.518-4.224.7-2.098 2.457-2.808 4.321-3.7M261.207 415.229c1.013-.133 1.926-.174 2.947-.071 2.174.216 4.145 1.07 5.507 2.838.942 1.222 1.34 2.694 1.113 4.223-.336 2.26-1.693 3.684-3.443 5.008-.624.158-1.266.322-1.908.377-1.978.17-4.144-.695-5.532-2.089-1.287-1.292-1.921-3.084-1.82-4.896.135-2.407 1.38-3.885 3.136-5.39M254.256 317.573c.539.015 1.07.029 1.605.092 2.034.242 3.908.944 5.14 2.663.99 1.38 1.205 3.043.818 4.674-.609 2.566-2.583 4.653-4.755 6.012-.627.041-1.277.087-1.904.018-1.7-.185-3.431-1.3-4.385-2.702-1.18-1.734-1.41-3.916-.888-5.918.65-2.494 2.208-3.647 4.369-4.839M266.618 345.714c.846-.04 1.763-.114 2.591.087 1.579.385 3.117 1.62 3.836 3.07.855 1.728.793 3.679.164 5.466-.875 2.487-2.582 3.596-4.864 4.698-.918.03-1.918.1-2.811-.14-1.585-.43-3.254-1.569-4.028-3.036-.827-1.568-.763-3.446-.209-5.09.943-2.802 2.824-3.826 5.321-5.055M277.034 391.424c.968-.023 2.02-.087 2.965.148 1.877.466 3.721 1.908 4.632 3.607.857 1.6.949 3.455.33 5.153-.81 2.228-2.516 3.082-4.528 4.094-1.256.016-2.555.076-3.768-.293-1.727-.526-3.226-1.68-4.06-3.297q-.151-.29-.27-.596-.12-.305-.205-.621-.085-.317-.137-.64-.05-.324-.067-.651t.002-.654.073-.65.141-.64q.089-.315.21-.619c.929-2.358 2.46-3.324 4.682-4.341"/><path fill="#FAF5E9" d="m470.793 433.152.565.459c.256 1.346-.415 2.618-1.11 3.743-3.341 5.402-12.388 8.316-18.232 9.653-2.158-.81-3.984-3.267-6.278-4.16l-1.01.499c-.974-.045-1.027-.42-1.688-1.089-.326-.374-1.068-.728-1.494-.98l-.453-.263c.01-1.744 1.13-3.346 2.268-4.589l.511.07c.186.59.368 1.15.675 1.692.882 1.563 2.196 2.538 3.935 2.964 8.333 2.042 15.775-3.903 22.311-7.999"/><path fill="#E17063" d="M261.63 330.894c.791-.143 1.576-.203 2.378-.118 1.473.154 2.954 1.225 3.85 2.364q.18.224.336.465.155.241.287.496.13.255.236.522.106.268.183.543.078.277.129.56.05.282.072.568t.015.573q-.007.287-.042.572c-.412 3.416-3.928 5.556-6.383 7.61-.485.092-.58.14-1.133.078-1.559-.174-3.732-1.684-4.624-2.937-1.003-1.413-1.33-3.27-.963-4.956.703-3.242 3.078-4.654 5.659-6.34M191.592 366.77c.842-.012 1.676-.005 2.497.208 2.33.606 4.475 2.133 5.66 4.247.887 1.58 1.184 3.455.617 5.198-.669 2.053-2.031 2.951-3.862 3.916-.931.25-1.873.425-2.838.271-2.055-.328-3.97-1.541-5.094-3.291-1.09-1.698-1.424-3.852-.958-5.81.575-2.424 1.917-3.515 3.978-4.738M245.542 415.285c1.086-.049 2.325-.167 3.385.1 1.828.458 3.685 2.082 4.502 3.758.775 1.587.861 3.407.153 5.037-.95 2.188-2.679 3.11-4.768 4.016-1.527.222-2.939.18-4.36-.504q-.337-.166-.657-.363t-.62-.425-.575-.482q-.276-.256-.526-.536t-.472-.585-.413-.627q-.192-.324-.351-.664-.16-.34-.285-.695c-.564-1.641-.507-3.549.31-5.097.985-1.863 2.813-2.325 4.677-2.933M165.45 284.423c1.293-.142 2.63-.263 3.923-.052 2.177.355 4.365 2.063 5.5 3.915.955 1.557 1.344 3.312.831 5.093-.63 2.189-1.931 3.14-3.853 4.188-1.394.194-2.83.281-4.215-.037-1.993-.459-3.885-1.877-4.966-3.603-.96-1.533-1.377-3.273-.924-5.049.555-2.17 1.846-3.344 3.704-4.455M162.25 298.663c.112.01.225.014.336.03 3.117.429 6.621 1.93 8.56 4.47 1.015 1.33 1.547 2.907 1.296 4.583-.366 2.452-2.154 3.734-4.03 5.106-1.118.446-2.087.765-3.31.671-1.861-.142-3.557-.94-4.742-2.4-1.495-1.843-2.028-4.304-1.781-6.63.292-2.763 1.542-4.179 3.671-5.83M214.624 398.047c1.146 0 2.248.112 3.335.51 2.387.877 4.597 2.987 5.518 5.361.639 1.649.675 3.47-.138 5.066-1.01 1.982-2.66 2.685-4.652 3.422-1.302.002-2.54-.06-3.765-.548-2.196-.875-4.131-2.72-5.043-4.907-.689-1.654-.814-3.512-.084-5.175.97-2.215 2.676-2.929 4.829-3.729M166.978 316.353c1.128-.034 2.154-.024 3.252.28 2.518.696 4.813 2.881 5.978 5.177.83 1.636 1.23 3.529.613 5.306-.674 1.938-2.076 2.87-3.871 3.664-1.133.22-2.141.357-3.295.21-2.019-.257-4.035-1.443-5.266-3.059q-.237-.31-.441-.641-.204-.332-.373-.683-.168-.352-.3-.718-.13-.366-.224-.745-.093-.378-.147-.764t-.067-.775q-.013-.39.013-.778.028-.389.094-.772c.431-2.628 2.004-4.153 4.034-5.702M175.438 333.19l.52.146c3.072.893 5.659 2.379 7.175 5.333.822 1.602 1.109 3.448.474 5.167-.849 2.297-2.915 3.653-5.018 4.678-.74-.025-1.44-.063-2.165-.223-2.386-.522-4.46-1.868-5.692-4.011q-.189-.324-.343-.665-.155-.342-.274-.697t-.201-.72q-.082-.366-.127-.738-.044-.373-.05-.747-.006-.375.026-.748t.102-.742.178-.726c.855-2.849 2.882-4.03 5.395-5.307M181.594 351.217c1.524-.239 3.18-.333 4.7-.012 2.348.495 4.775 2.415 6.074 4.393.952 1.448 1.438 3.05 1.011 4.768-.457 1.842-1.772 3.027-3.31 4.006-1.073.426-2.102.8-3.26.915-1.849.186-3.656-.561-5.049-1.748-1.792-1.528-2.79-3.814-2.832-6.156-.044-2.56.915-4.382 2.666-6.166"/><path fill="#FAF5E9" d="m468.567 417.494 4.586.38c-.046 3.462.158 6.896-2.168 9.743-3.278 4.012-9.868 9.189-15.085 9.789-1.498-.717-2.732-1.169-4.392-1.359q-.22-.024-.443-.045c-.07.27-.168.695-.304.93-.415.716-1.107 1.025-1.933.965-.921-.067-1.222-.343-1.662-1.079 1.076-1.717 4.306-2.433 6.052-3.657 4.462-3.13 12.936-10.861 15.349-15.667M213.308 248.274c1.388 1.26 3.484 11.196 4.35 13.628 1.395 3.91 3.052 7.817 4.964 11.506 2.278 4.394 6.659 7.168 9.687 10.91l-.371.511c-1.694-.1-3.36-.262-4.988-.77-5.158-1.608-9.308-5.353-11.739-10.135-3.455-6.793-4.37-18.47-1.903-25.65"/><path fill="#343139" d="M389.75 492.083c2.21 2.493.033 45.338-.117 51.984l-4.296.79c-.384-4.381-.2-8.933-.364-13.341-.15-4.073-.689-8.127-.777-12.2-.164-7.538.272-14.992.555-22.514 1.606-1.624 3.335-3.154 5-4.719"/><path fill="#FAF5E9" d="M382.412 499.186c.777 4.903.349 10.555.377 15.568l.046 31.791c-1.888-1.557-3.867-3.05-6.418-3.05-.716 0-1.187.003-1.879-.25.045-.576.07-1.156.12-1.732.136-1.59-.164-2.606-.713-4.088l-.208-.547c-1.07-2.478-2.995-3.136-4.654-5.009.218-1.367.48-2.763.59-4.144.271-3.415-2.51-4.214-4.27-6.506-1.069-1.393-.746-2.21-.53-3.815.207-1.53.178-2.546-.23-4.054q-.058-.214-.121-.427c6.285-4.144 11.925-9.163 17.89-13.737M435.673 384.785c3.484-.255 7.24.338 10.64 1.091 9.457 2.097 15.682 6.575 20.894 14.67l-3.03 2.91a5.1 5.1 0 0 0-1.409-.11c-4.136.206-4.204-1.852-7.563-2.646-2.459-.58-4.808-.152-7.282-.19-3.244-.049-5.869-1.29-8.097-3.628-1.003-.09-1.564-.143-2.529.231l-.27.706c.456 1.382 1.577 2.402 2.542 3.458-1.101 1.705-2.066 3.5-3.066 5.266-7.128-.817-14.484-.846-21.655-1.19-.546-2.035-1.151-3.685-2.208-5.523 6.716-5.845 15.389-10.479 23.033-15.045M347.54 480.114c.797 1.246 1.722 2.399 2.625 3.568-1.147 1.173-2.143 2.394-2.801 3.913-1.005 2.32-.887 3.901.094 6.204.19.447.401.884.567 1.34.994 2.728-1.028 4.03-2.121 6.28-2.898 5.961 3.223 8.034 3.345 10.503.21 4.258-1.784 2.58.161 8.738-8.167 3.383-16.24 8.993-25.45 6.466-4.242-1.858-7.276-4.61-10.444-7.914-.049-6.06-.148-12.305.511-18.331 14.918-5.012 21.928-10.621 33.513-20.767M414.408 408.983c7.848-.247 15.776 1.665 23.298 1.27 5.187-.274 14.626-2.324 19.378-.145 1.009.462 1.852.993 2.274 2.015l-.53.58c-2.015.665-3.69.596-5.746.112-.62-.146-.271-.166-.964.14-.045 1.006.057 1.52.478 2.435 4.042 2.874 7.8-2.151 11.46-1.55-1.69 1.471-5.071 2.209-7.26 2.946-10.102 3.402-20.033 4.72-30.643 5.162-3.903.163-11.159-.464-14.5.611-.952.306-1.286.475-1.708 1.377l.58.732c5.1 2.228 21.144.36 27.075-.16-1.216 2.244-2.253 4.169-2.97 6.638-.045.497-.268.916-.454 1.375-2.72 2.441-5.994 4.132-9.375 5.465-3.485 1.374-10.697 2.571-14.347.907-2.053-.937-3.92-2.657-6.06-3.348-.933-.302-1.42-.205-2.29.18l-.153.647c.17.425.364.78.654 1.134 3.121 3.81 7.309 5.075 11.992 5.66-1.883 5.629-4.687 11.222-7.586 16.394-3.67-1.763-6.697-4.424-9.148-7.653-6.465-8.52-8.341-20.422-6.979-30.832 1.045-.926 1.981-2.242 3.38-2.546l.677.957c2.009.186 7.38-3.98 9.345-5.12 1.37.43 2.622.813 4.057.461 3.015-.736 4.51-3.412 6.065-5.844"/><path fill="#FAF5E9" d="M435.464 436.267c.72.367 1.385.968 2.033 1.456.975 1.795.878 4.422 1.065 6.442-5.756 4.94-2.3 7.422-4.408 12.019-.673 1.467-2.77 1.92-3.507 3.564-.056.124-.1.253-.152.38-1.005 2.466.123 4.84-.224 7.279-.157 1.099-3.652 2.714-4.381 4.292-1.263 2.731.778 7.505.04 8.878-.537 1-2.775 1.791-3.528 2.976-1.579 2.485-.066 5.609-1.16 8.008-.838 1.84-3.63 2.953-4.698 5.039-1.14 2.225-1.127 5.124-.32 7.437a32 32 0 0 0-1.713 1.51c-3.032 2.929-3.07 6.258-3.098 10.204-.84 1.532-3.286 1.59-4.455 2.89-2.548 2.834-.391 5.058-.988 7.943-.26 1.254-3.314 2.322-4.454 3.076-2.972 1.964-1.901 4.817-3.032 7.526-.516 1.238-1.65 1.235-2.814 1.593-1.15.695-2.271 1.45-3.401 2.178-.172-16.883.237-33.82.37-50.707 9.424-8.065 25.116-20.864 31.182-31.198.141-5.427-1.35-10.602-2.702-15.803 5.24-1.698 9.824-3.815 14.345-6.982"/><path fill="#FAF5E9" d="M385.389 421.868c.745.215 1.1.332 1.742.797.064 4.377-.016 8.87.65 13.2 1.445 9.401 5.802 18.67 13.657 24.38 4.862 3.536 9.469 3.905 15.217 3.026-14.096 13.945-28.6 26.764-44.075 39.146-2.322 1.853-8.215 7.465-11.153 7.173-.544-.054-.602-.388-.892-.791 3.79-7.365-1.333-8.154-.805-11.428.051-.324 2.65-4.074 3.2-6.127l.151-.577c-.633-1.947-1.24-3.49-2.405-5.197.358-.356.707-.704 1.02-1.103 3.217-4.12 2.527-5.533 2.121-10.301-.112-1.312.167-1.78.984-2.747.773-.912 1.3-1.778 1.848-2.839l.216-.427c-.274-1.396-.716-2.78-1.09-4.153 7.133-6.265 5.851-9.312 3.767-17.972-.38-1.58-.91-3.064-.72-4.711.001-.017.122-.907.12-.97-.013-1.247-1.06-2.27-1.808-3.186 3.185-.447 6.671-.738 9.307-2.775 2.156-1.666 3.377-3.961 3.763-6.614 2.168-1.722 3.825-3.372 5.185-5.804"/><path fill="#FAF5E9" d="M272.86 479.909c11.801-5.633 21.014-12.794 29.538-22.694 6.107-7.094 11.785-17.713 20.285-21.948 11.36-5.66 31.913-7.938 44.452-7.677 2.28.048 5.295-.179 7.419.607.846.312.9.45 1.258 1.22-.065.582.027 1.521-.47 1.869-2.789 1.949-9.028 2.557-12.452 3.245-7.101 1.427-31.743 5.873-35.94 11.081-.045.755-.245.94.381 1.55 6.413 6.227 26.324-3.83 35.285-2.426 1.486.234 3.527 1.396 4.253 2.758.557 1.044.446 1.353.175 2.426-2.86 3.328-17.53 5.112-22.402 6.357-2.007.513-4.252 1.191-5.373 3.05l.239.78c2.92 1.257 17.289-3.282 21.48-3.958 1.208-.195 1.788-.03 2.75.688.352.91.447 1.627.34 2.59-.81 7.332-18.183 7.772-22.96 11.702l-.095 1.261c.123.064.237.15.37.192 4.13 1.282 11.194-1.885 15.137-3.347l.088 1.648q-.204.093-.41.182c-4.66 1.996-8.751 5.402-12.723 8.517-4.352 3.412-8.568 7.18-13.15 10.268-9.575 6.453-21.548 9.619-32.99 10.246-2.386 2.212-4.592 4.653-6.844 7.002q-2.644-3.088-5.078-6.343-2.433-3.256-4.645-6.666t-4.194-6.959q-1.982-3.548-3.724-7.221M246.613 325.277c.057.29.112.58.185.865 1.058 4.14 3.304 5.749 6.804 7.812-.688 2.226-1.03 4.354-.415 6.655.875 3.274 3.52 4.963 6.238 6.604-.932 2.675-1.591 5.23-.88 8.073.822 3.289 3.005 5.005 5.748 6.667q-.23.36-.45.727c-1.45 2.448-2.223 5.215-1.395 8.025.949 3.221 3.215 4.904 6.073 6.348-1.043 2.662-2.006 5.796-1.341 8.672.719 3.106 2.71 4.38 5.264 5.88-1.911 1.753-2.975 3.911-3.05 6.55-.092 3.206 1.36 5.254 3.379 7.536-.412.221-.821.445-1.217.692-2.11 1.32-2.894 3.092-3.461 5.442l-.111.478c-1.758 1.651-4.638-.163-6.714.219-2.661.49-4.496 2.964-5.927 5.053-1.637-2.105-3.653-4.051-6.285-4.79-3.145-.882-5.794.169-8.545 1.66-1.425-2.028-3.021-4.152-5.245-5.352-2.36-1.273-5.397-1.174-7.872-.321q-.183.064-.367.132l-.35-.28c.214-1.263.311-2.425.277-3.708l-.012-.39c-1.152-2.732-2.648-5.392-5.095-7.167-3.176-2.306-6.726-2.223-10.42-1.58 1.254-1.793 2.263-3.19 2.392-5.462q.032-.482.013-.965t-.088-.96-.19-.947q-.118-.468-.286-.921t-.382-.886q-.215-.434-.474-.841-.258-.408-.558-.787-.3-.378-.639-.723c-2.665-2.772-5.664-3.222-9.292-3.208 1.168-3.255 1.982-6.61.577-9.952-1.561-3.712-4.792-5.058-8.235-6.533.685-1.034 1.268-2.14 1.477-3.376q.083-.495.115-.995.031-.5.012-1-.02-.501-.091-.997t-.192-.983-.292-.958-.389-.922q-.218-.451-.48-.878-.263-.427-.569-.824c-2.298-3.03-5.422-4.288-9.091-4.715 1.424-3.205 2.12-5.518 1.907-9.05 11.993 3.952 23.877 5.216 36.31 2.332 9.922-2.302 18.139-7.235 23.629-15.951"/><path fill="#E17063" d="M329.127 617.5c1.266 2.327 1.053 7.46 1.23 10.231 1.82 28.533-.584 63.642-5.913 91.627-6.76 1.404-13.735 2.207-20.56 3.27l-34.657 5.454c-.478.035-.956-.067-1.43-.128.393-2.644 1.806-5.636 2.647-8.214 1.196-3.67 2.205-7.382 3.186-11.115 5.815-22.112 12.723-47.267 13.937-70.029 14.37-4.984 29.61-11.578 41.56-21.095"/><path fill="#343139" d="M297.923 53.408c14.394-2.213 28.84-3.884 43.292-5.65 7.763-.947 16.932-3.082 24.728-2.047 4.429.587 8.76 2.69 12.322 5.334 5.297 3.93 8.489 9.797 9.418 16.281 1.086 7.588.266 15.948.311 23.628l.076 59.52.49 251.562-4.212 3.335c-.844-22.472-.056-44.998-.119-67.475l.018-109.58q.402-52.112-.793-104.212c-.127-4.296.2-8.637.303-12.938.23-9.572.51-19.149.599-28.724.044-4.739.408-9.744-.181-14.44-.556-4.429-3.153-8.68-6.367-11.693-5.475-5.132-12.377-6.785-19.712-6.459-6.413.286-12.943 1.7-19.327 2.474-3.603.436-35.25 3.092-36.696 4.755-3.513 4.044.015 20.973-9.024 29.332-9.4 1.292-18.852 2.193-28.257 3.474-11.829 1.61-23.629 3.594-35.472 5.047-9.213 1.13-18.472 1.828-27.68 3.01-12.362 1.586-24.61 3.675-37.022 4.95-3.98.41-8.068.995-12.065 1.06-5.4-5.756-6.987-19.48-9.894-27.26-4.555.55-9.188 1.473-13.76 1.735l-.267-.386c-20.919 2.88-39.746 1.912-54 20.556-5.29 6.92-10.354 16.896-11.146 25.672-.39 4.327-.163 8.838-.137 13.184l.108 22.94-.035 78.138.571 268.657.106 187.038-.303 25.667c-.098 5.141-.834 10.436-.13 15.551q.087.643.206 1.281.118.638.268 1.27.15.63.332 1.254.181.623.393 1.236t.454 1.215.514 1.191.573 1.164.63 1.134.685 1.101.74 1.067q.382.523.79 1.027.41.505.842.988.433.483.89.944.456.461.935.898.48.439.98.852t1.02.802c10.819 7.952 25.36 4.418 37.542 2.446l175.555-27.908c14.724-2.356 29.525-4.087 44.252-6.502 5.936-.973 12.05-1.478 17.75-3.504 10.038-3.571 19.538-11.37 25.76-19.937 11.657-16.047 9.743-27.548 9.713-45.881-.009-5.413.665-11.307.086-16.655l-.986.262c-.332.795-.227 1.176-.094 1.988.655 3.994.548 27.73-.619 31.01-.26-5.724.045-11.556.083-17.29q.071-14.557-.01-29.115l-.131-33.82c-.03-6.176-.294-12.44.006-18.605.93-2.54-.04-5.006.442-7.628l.452-.222c1.125 2.04.209 3.667.728 5.74l.197-.066.014-5.462 4.846.697.433 3.581c.312 2.404.046 4.619-.223 7.012-.423-1.906-.521-3.916-.713-5.857-.225 6.832 1.089 13.402 1.03 20.174-.063 7.616-.619 15.3-.552 22.907.025 2.931.61 5.854.582 8.787-.051 5.18-1.265 10.078-1.178 15.848l.4-5c.37.819.283.486.432 1.333.804 4.596-.175 9.936-.192 14.647-.072 19.632 1.058 36.407-10.801 53.474-8.28 11.913-22.407 21.482-36.72 24.078-7.452 1.352-15.023 2.195-22.51 3.36l-62.065 9.467-83.158 13.1-52.711 8.054c-9.836 1.586-22.73 4.634-32.354 4.708-6.747.05-14.665-2.549-20.097-6.557-4.85-3.578-9.206-12.703-9.924-18.632-1.162-9.596-.357-21.421-.325-31.3l.155-59.849.006-200.05-.05-213.536q-.203-35.655-.02-71.31c.03-11.796-.65-24.102.352-35.844.89-10.42 5.576-20.696 12.039-28.849 16.407-20.7 37.245-19.736 61.05-22.463l2.952-.362c3.5-.375 7.033-.666 10.516-1.172q2.45 8.732 4.583 17.545c.773 3.087 1.315 6.728 2.613 9.613 5.248 1.517 52.492-5.46 61.35-6.854 4.632-.73 9.206-1.805 13.842-2.49 10.2-1.507 20.524-2.712 30.756-4.037 8.67-1.123 17.492-1.318 26.107-2.579 2.257-.33 5.065-.743 7.085-1.831 1.647-.888 2.246-2.8 2.683-4.502 1.935-7.522 2.337-15.905 3.046-23.622"/><path fill="#FAF5E9" d="M351.235 523.403q.377.245.745.503c2.054 1.468 1.33 4.86 1.809 7.203.621 3.038 2.572 4.323 4.967 5.972-.537 1.847-.835 3.494-.376 5.4 1.685 6.992 7.288 5.105 8.55 7.078 1.542 2.412 1.018 5.75 3.865 7.33 2.088 1.158 6.085.63 8.266.042 1.098 1.554 2.193 2.948 3.515 4.326l.249 8.1c-.3 6.164-.036 12.429-.006 18.605l.132 33.82q.08 14.558.009 29.116c-.038 5.733-.343 11.565-.083 17.289-.883 10.4-4.124 20.246-10.542 28.585-6.887 8.949-17.516 16.84-28.577 19.596-4.96 1.235-10.401 1.645-15.477 2.33.685-7.222 2.186-14.404 3.003-21.627q2.885-25.828 2.765-51.816c.01-10.086-.005-20.45-1.718-30.418a33.2 33.2 0 0 0 4.819-6.835c-1.254-14.301-7.773-33.35-13.017-46.73-2.865-7.31-6.296-14.594-8.233-22.22-1.245-4.901-1.703-9.872-2.14-14.89 2.885 2.485 5.808 4.838 9.43 6.16 9.55 3.49 19.626-2.987 28.045-6.919M302.954 165.57c2.08.907 3.293 3.054 4.226 5.043 4.665 9.95 5.293 32.953 2.196 43.248-1.514 5.028-4.58 9.314-6.267 14.229-3.351 9.763 3.001 16.524 6.857 24.753-3.214 3.1-8.818 3.784-11.25 7.171-5.995 8.348-10.18 33.096-17.007 37.45-6.72 4.284-19.845.729-26.904-1.262-2.367-.668-5.156-1.824-7.568-2.118-.66-.08-1.108-.024-1.604.404-2.877 2.484-3.473 8.168-3.742 11.778-.334 4.462-1.104 12.207 2.037 15.708.175.196.356.388.534.582-.198.424-.431.837-.663 1.243-4.036 7.087-12.251 11.699-19.896 13.814-11.564 3.2-27.97 2.122-38.934-2.779-2.073-.925-3.923-2.749-5.954-3.89l-.456-.253c1.067-3.652 1.358-7.379-.256-10.943-1.407-3.11-3.515-4.521-6.599-5.713 1.149-1.374 2.346-2.78 3.04-4.453.974-2.355.377-4.143-.486-6.423-.147-.401-.298-.805-.42-1.214-.578-1.96 2.97-4.37 3.947-6.182 1.552-2.874.804-5.442-.092-8.351.886-1.015 1.884-1.936 2.845-2.881 4.118 1.994 7.76 4.812 12.16 6.26 3.042 1.001 4.859-.582 7.577-.191 1.773.256 3.533 1.066 5.284 1.484 5.856 1.399 12.49 1.466 18.383.252 3.412-.704 12.507-2.85 14.307-5.9.363-.614.55-1.213.234-1.91-.24-.53-7.713-6.328-9.381-8.366-6.542-7.99-9.556-18.195-11.966-28.06 1.469-.892 3.246-2.023 4.258-3.437.746-1.044.89-2.005.687-3.267-2.332-3.45-8.214 4.18-12.258 2.792-2.228-.764-4.855-4.696-6.059-6.73-2.76-4.66-4.068-10.695-2.596-15.977.866-3.103 3.003-6.483 5.938-8.006 5.4-2.8 9.22 2.499 13.817 3.969 5.508 1.762 13.105-.87 18.23-2.902 16.315-6.467 29.998-15.471 42.011-28.353 6.888-7.386 12.549-15.957 21.79-20.618"/><path fill="#050408" d="M208.97 222.128c1.749.385 3.956 1.187 5.38 2.303 3.239 2.537-1.536 5.365-1.131 8.28.536.588 1 1.092 1.36 1.806-.441.946-1.105 1.299-1.948 1.839-.901-.399-1.835-.789-2.508-1.546-3.05-3.433 1.854-4.922 2.205-7.707-.662-.667-1.143-.761-2.03-.94-.936-.189-1.733-.396-2.621-.74l-.32-.745c.312-1.115.866-1.713 1.614-2.55M278.944 209.828c3.888-.19 7.9-.366 11.706.594 1.969.496 4.943 1.625 5.977 3.53.433.798.352.982.144 1.81-.921.45-.945.376-1.954.131-1.977-1.05-3.865-1.99-6.097-2.396-3.225-.586-10.688.84-12.904-1.098l.118-.587c.973-1.147 1.586-1.518 3.01-1.984M288.05 224.596c.214.028.428.051.64.083 1.205.18 2.142.706 2.85 1.723.891 1.276.962 2.915.68 4.401-.583 3.068-2.192 5.542-4.772 7.242-.47-.04-.967-.105-1.417-.251-1.23-.399-2.165-1.418-2.725-2.559-.997-2.033-.735-4.43.107-6.47.999-2.42 2.282-3.21 4.638-4.17M269.344 259.187c3.284.358 5.65 2.67 8.77 3.602 3.693 1.103 7.802.877 11.356 2.021 1.01.325 1.27.703 1.662 1.635-.38.757-.41.772-1.185 1.04-5.29 1.828-12.991-1.391-17.703-3.628l1.92 3.52c4.49 6.018 4.095 4.68 10.632 6.793.7.89.75.835.67 1.953-.54.56-.937.804-1.693.947-2.103.397-4.796.064-6.582-1.154-3.775-2.575-8.114-8.326-8.793-12.875-.246-1.644-.03-2.53.946-3.854"/><path fill="#E17063" d="M130.709 634.712c2.745 2.287 6.611 3.767 9.916 5.05 14.243 5.528 28.686 7.95 43.767 9.668-6.171 13.187-20.826 28.928-32.617 37.724-2.468 1.841-10.505 6.405-10.643 9.635.797.665.783.683 1.817.69 15.869-9.321 37.55-31.018 44.998-47.573 33.956 1.967 63.923.645 96.412-10.322-2.15 23.612-8.184 46.969-14.285 69.827-1.715 6.426-4.075 12.73-5.58 19.195-10.566 1.608-21.84 4.013-32.358 5.016l-50.892 8.218c-8.917 1.418-18.037 2.517-26.881 4.297-.104-15.37-.57-30.772-.479-46.136 14.55-10.68 29.15-22.283 38.833-37.775 1.286-2.058 3.533-5.174 3.832-7.618.08-.648.033-.955-.23-1.53-.831-.433-.897-.445-1.827-.328-1.494 1.708-2.625 4.34-3.803 6.32-2.222 3.735-4.535 7.303-7.278 10.686-10.322 12.728-20.81 18.863-32.936 28.774.011 16.06.594 32.12.245 48.18-3.068.326-6.161.572-9.163 1.313-2.951-5.551-4.296-11.643-5.744-17.716q-1.738-7.205-3.056-14.498-1.317-7.294-2.211-14.65-.894-7.358-1.361-14.755-.467-7.396-.506-14.807-.125-10.25 1.216-20.413c.591-4.528 1.808-9.348 1.777-13.91-.008-1.069-.341-1.698-.963-2.562"/><path fill="#FAF5E9" d="M331.924 36.499c8.874-.931 18.995 3.835 27.179 6.676-8.915.39-17.92 2.169-26.779 3.3-12.108 1.546-24.446 2.59-36.415 5.013-1.696 7.108-1.164 21.542-4.27 27.248-1.616 1.33-3.979 1.86-6.006 2.24-4.813.903-9.805 1.234-14.669 1.887q-17.464 2.4-34.951 4.62c-26.997 3.47-53.947 7.286-81 10.304-2.214-9.024-4.133-19.959-7.775-28.417-6.843.133-14.013 1.62-20.834 2.414-19.812 2.304-37.335 2.356-52.512 17.55-8.634 8.642-15.007 20.099-16.682 32.283-.936 6.807-.562 14.018-.586 20.88l-.007 36.924-.007 121.914-.002 415.655c-.067 17.643-1.738 23.142 8.662 38.368q-2.676-1.615-5.088-3.604c-6.572-5.47-11.2-13.815-11.96-22.359-1.033-11.596-.33-24.451-.358-36.17l-.03-69.654.154-206.99-.085-209.918.014-56.645c-.032-10.453-.772-21.492.238-31.892 1.193-12.276 6.595-23.53 14.518-32.885C69.6 77.064 79.111 70.513 89.43 67.463c7.657-2.264 16.012-2.456 23.914-3.578q33.928-4.762 67.957-8.753 52.465-6.934 105.032-13.042c15.172-1.843 30.363-4.321 45.592-5.591"/><path fill="#050408" d="M251.952 65.403a4.8 4.8 0 0 1 2.09.266c1.138.404 2.04 1.38 2.46 2.502.412 1.096.495 3.007-.222 4.006-.731 1.02-2.6 1.51-3.74 1.77-4.966 1.14-10.348 1.264-15.403 2.022q-26.863 4.014-53.845 7.132a4.64 4.64 0 0 1-2.643-.635c-1.247-.738-2.033-2.191-2.317-3.591-.201-.987-.05-1.882.63-2.665.98-1.126 2.62-1.664 4.023-1.994 8.107-1.905 19.397-2.571 27.922-3.6 13.69-1.653 27.328-3.758 41.045-5.213"/><path fill="#343139" d="M246.3 68.52c2.783-.23 5.055-.54 7.705.558l.31.968c-.877.9-1.99 1.316-3.192 1.625-4.167 1.07-8.88 1.327-13.154 2.01-16.7 2.665-33.592 4.445-50.378 6.524-1.367.406-3.9.801-5.27.374-.97-.302-1.368-.782-1.842-1.626l.351-.911c.89-.712 1.67-1.111 2.781-1.4 3.872-1.005 8.262-1.062 12.244-1.7 4.382-.704 8.745-1.644 13.138-2.253 12.35-1.713 24.908-2.73 37.307-4.168"/><path fill="#FAF5E9" d="M227.244 123.216c26.72-1.182 58 11.713 81.574 23.545 4.552 2.285 10.55 4.548 14.327 7.95 2.096 1.886 2.877 4.553 2.975 7.314.322 9.074-5.729 19.625-11.834 25.939-.977-9.188-1.909-16.454-7.595-24.005a52 52 0 0 1 6.835-1.25c1.038.419 2.253 1.216 3.3 1.471.993.24 1.637-.127 2.458-.605l.133-.864c-.305-.506-.355-.635-.791-1.115-1.234-1.357-3.681-1.96-5.433-2.03-16.445-.66-29.156 19.49-39.791 29.632-12.393 11.817-33.903 25.582-51.424 25.166-1.164-.854-2.33-1.72-3.557-2.483-3.179-1.976-7.04-3.178-10.76-2.209-3.694.963-6.488 3.822-8.25 7.103-2.728 5.083-2.77 11.173-1.181 16.619 1.919 6.573 5.752 11.183 11.764 14.44-1.702 8.775-1.76 19.135 2.076 27.395 3.225 6.946 8.877 10.05 15.693 12.547-4.457 1.14-8.89 1.905-13.507 1.894-8.74-.02-15.667-2.489-21.864-8.735-.285-.34-.571-.679-.838-1.033-5.797-7.725-7.492-19.925-6.439-29.292.474-4.214 1.586-8.338 2.132-12.538.221-1.696.354-3.597-.717-4.998l-.574.253c-3.938 4.964-4.72 20.805-4.398 27.277.496 9.937 5.064 20.488 12.522 27.126-6.34-2.564-13.508-6.589-18.8-10.914-12.727-10.403-16.323-26.151-10.816-41.48 1.047-2.915 4.058-7.257 3.75-10.255-.642-.682-.642-.622-1.585-.703-.5.199-.918.397-1.27.823-1.048 1.269-1.69 3.237-2.334 4.762-2.903 6.876-4.908 13.875-4.49 21.418.6 10.81 4.974 19.175 12.918 26.318-4.818-2.2-9.335-4.41-13.399-7.883-8.162-6.975-12.172-15.596-12.982-26.227-.602-7.891.143-16.117 2.81-23.599 3.852-10.812 11.064-19.77 16.774-29.602 3.38-5.824 6.14-12.046 9.263-18.015 5.967-11.404 13.081-22.879 21.554-32.605 9.7-11.135 17.071-15.517 31.77-16.552M309.165 502.067l.715.018c.054.123.122.24.161.368.605 1.903.092 13.64.153 16.878.122 6.465.601 12.953 2.12 19.253 1.97 8.173 5.579 15.758 8.663 23.541 4.922 12.424 11.484 31.965 12.713 45.037-4.178 6.116-10.155 10.702-16.51 14.402-47.905 27.886-112.832 32.278-165.712 18.27-7.472-2.286-16.236-5.125-22.32-10.18 1.185-5 3.142-9.99 4.714-14.898 2.188-6.826 4.15-13.72 6.302-20.556q1.058 1.145 2.189 2.217c6.323 6.003 11.73 7.746 20.408 7.513 5.888-.158 11.573-.586 17.034-2.937 6.93-2.984 13.586-6.829 20.114-10.591 17.919-10.33 34.988-22.12 51.856-34.069 13.048-9.243 26.244-18.327 38.91-28.087 2.791-2.15 7.638-4.442 9.66-7.16 2.338-3.144-.46-13.22-1.244-17.16 3.304-.783 6.73-1.26 10.074-1.859"/><path fill="#FAF5E9" d="M155.725 307.496c2.224 6.782 4.93 5.388 6.92 8.809-1.606 1.893-2.477 4.285-2.634 6.757-.501 7.935 5.5 8.008 8.349 11.39-.385 1.123-.78 2.26-1.039 3.421-.658 2.96-.359 6.12 1.372 8.675 2.114 3.12 5.532 4.286 9.021 5.06-.42 1.158-.792 2.33-1.023 3.543-2.065 10.857 6.325 10.582 8.423 13.466 1.194 1.64-1.372 6.948.978 10.245s6.824 4.312 10.583 4.869c-.42 1.237-.856 2.465-.901 3.783-.1 2.89.666 5.88 2.796 7.934 2.882 2.78 6.287 2.651 9.983 2.552-1.117 2.386-2.024 4.497-1.857 7.187.182 2.953 1.485 5.57 3.798 7.43 3.544 2.846 5.965 2.436 10.183 2.039.819.579 1.478 4.35 1.94 5.456.927 2.217 2.522 4.12 4.822 4.959 3.526 1.286 7.053.062 10.266-1.403 1.151 2.682 2.473 4.897 5.117 6.349q.425.232.872.418t.91.325q.464.138.94.228t.958.13.967.029q.484-.01.964-.072.48-.06.952-.171.471-.11.928-.27c2.76-.933 4.64-2.609 5.94-5.179 1.723 2.356 4.012 4.5 6.973 5.119 7.248 1.516 8.795-6.955 10.785-7.946 1.97-.982 5.414-.048 8.655-2.235 1.546-1.043 2.555-2.471 2.89-4.317.614-3.388-.356-6.617-2.28-9.373.83-.767 1.715-1.542 2.456-2.395 1.672-1.926 3.157-4.801 2.833-7.422-.417-3.376-3.37-5.392-5.812-7.367-.336-1.142.354-1.945.817-3.018 1.016-2.35 1.8-4.84.692-7.322-1.127-2.524-3.762-4.142-6.195-5.163.915-1.969 1.582-4.013 2.28-6.065-.34-1.245-.684-2.49-1.247-3.655-1.357-2.81-3.371-3.84-6.204-4.855 1.95-2.08 3.936-4.929 3.831-7.913-.138-3.935-3.684-6.026-6.34-8.338-.462-1.854 1.336-3.681 1.82-5.478 1.893-7.04-7.05-7.743-7.613-10.218-.559-2.451 1.656-4.747-.834-8.553-1.59-2.429-4.366-3.701-7.083-4.362.513-1.697.77-3.378 1.035-5.125q.448-.07.9-.124c9.749-1.151 18.504.306 26.331 6.534q2.097 1.696 4.02 3.587t3.652 3.96 3.251 4.295q1.522 2.227 2.82 4.59c7.646 13.669 11.423 29.342 17.13 43.863 4.445 11.309 10.403 22.121 14.02 33.729 1.881 6.037 2.837 12.033 3.547 18.29q-5.45 1.86-10.923 3.653c-2.41-9.598-5.437-18.948-9.7-27.897-3.356-7.048-7.344-13.8-10.496-20.944-4.731-10.72-8.15-22.089-11.656-33.258-.626-1.995-3.7-12.55-4.224-13.415-.69-1.144-1.196-1.152-2.457-1.412-1.32 5.908 12.093 42.59 15.182 49.49 4.207 9.392 9.661 18.121 13.58 27.675 2.786 6.795 4.718 13.683 6.547 20.783-5.482 3.565-9.291 9.635-13.222 14.733-7.022 9.108-14.47 17.543-24.33 23.673-2.312 1.437-5.449 3.558-8.143 4.073-1.168.223-1.507-.295-2.416-.929-1.42-.143-2.498.43-3.715 1.094-6.105 3.332-11.78 7.871-17.567 11.742-6.912 4.622-14.173 8.89-21.333 13.12q-20.294 12.213-41.739 22.27c-2.48-6.265-4.453-12.83-6.716-19.187-1.068-3.078-2.06-6.44-4.053-9.057.464-4.003 1.314-8.432.755-12.443-.684-4.917-2.882-10.556-3.928-15.643q-2.962-15.052-6.158-30.056c-1.089-5.365-1.865-11.154-3.557-16.347-.428-1.318-.868-2.419-2.134-3.069l-.734.338c-.395.611-.639 1.118-.6 1.868.222 4.222 1.913 9.117 2.789 13.33l7.199 34.55c1.156 5.3 3.038 10.79 3.733 16.141.452 3.485-.543 7.36-.549 10.909-.002 1.519.05 3.531 1.18 4.666 3.259 3.269 8.187 20.88 9.526 26.074-1.307.352-2.624.704-3.881 1.208-7.43 2.977-10.993 11.592-13.914 18.508-1.05 2.487-3.998 10.116-2.845 12.465.32.652.502.568 1.126.812 2.122-1.107 3.429-7.874 4.326-10.25 2.163-5.728 5.661-13.417 10.63-17.235 3.184-2.448 7.99-3.828 11.641-5.625q13.954-6.743 27.492-14.285 16.895-9.768 33.363-20.238c5.755-3.7 11.488-8.577 17.727-11.375 5.958 16.078 16.167 28.689 28.658 40.122-3.845 3.578-8.563 6.56-12.835 9.632l-18.016 13.156q-14.1 10.08-28.39 19.892c-16.307 11.305-32.796 22.471-50.453 31.59-4.136 2.136-8.472 4.62-12.892 6.091-5.614 1.868-14.667 1.955-20.478.892-5.524-1.012-10.751-5.798-13.883-10.268-8.6-12.277-14.22-27.441-19.91-41.228C100.668 499.32 79.426 434.21 88.917 380.6c1.182-6.676 2.538-15.197 6.06-21 1.532-2.526 4.908-5.024 7.074-7.046 12.844-11.997 26.402-22.854 40.025-33.926 4.524-3.677 8.88-7.8 13.649-11.133"/><path fill="#050408" d="M173.449 521.362c1.19.171 1.334.217 2.248.993.042 1.739-3.108 3.516-4.47 4.489-10.127 7.224-13.786 12.179-21.07 22.172-.838.085-1.444-.032-2.09-.61-.323-.289-.36-.288-.32-.745.12-1.428 1.997-3.78 2.843-4.936 6.426-8.783 13.642-15.555 22.859-21.363M99.322 358.839c2.327-.008 4.645.059 6.953.371 16.444 2.227 31.247 12.735 41.115 25.76 2.853 3.765 9.04 12.026 8.383 16.734-.626.093-1.262.13-1.893.184-2.12-1.785-5.302-8.956-7.23-11.765-8.257-12.031-19.796-22.398-34.173-26.183-4.134-1.089-8.151-1.26-12.287-2.038-.767-1.023-.707-1.81-.868-3.063"/><path fill="#FAF5E9" d="M303.362 58.735q16.593-1.82 33.147-3.984c7.763-1.033 16.185-2.931 23.977-2.637 4.01.152 8.944 1.197 12.177 3.657 4.908 3.734 8.325 8.782 9.027 15.005 1.115 9.893.205 24.432.13 34.764l.127 52.434-.225 174.838-.078 74.515q-.175.163-.347.328c-1.088 1.056-1.585 1.842-2.232 3.188-.295.615-.618.88-1.191 1.225-.693.041-1.385.088-2.079.116-.983.04-1.658.092-2.41.822-1.493 1.447-1.945 3.832-4.266 4.035-5.885.517-5.83 1.185-9.78 5.345-.315.332-1.18 1.378-1.603 1.564-1.574.693-3.268-1.869-4.61-.56-2.504 2.444-12.868 3.327-16.728 4.278-.387-5.996-1.207-11.768-2.95-17.533-3.518-11.63-9.446-22.46-13.868-33.76-5.64-14.413-9.514-30.088-16.889-43.733q-1.414-2.656-3.057-5.177t-3.502-4.888q-1.859-2.367-3.918-4.56-2.06-2.195-4.305-4.2c-6.954-6.097-15.254-8.869-24.5-8.172-2.269.17-4.27.58-6.38 1.48-3.99-2.93-5.865-4.025-10.764-5.027.086-1.628.704-3.03 1.273-4.538 9.757 3.395 25.61 8.11 35.575 3.055 10.185-5.167 10.506-28.7 18.057-37.852 2.475-3 6.875-4.135 9.87-6.532.868-.693 1.887-1.707 2.195-2.813 1.071-3.833-7.5-12.26-7.685-18.92-.168-5.997 4.032-10.98 5.939-16.434 3.02-8.636 3.463-17.38 2.897-26.432q.187-.106.373-.215c7.128-4.232 12.103-15.255 13.952-23.01 1.054-4.42 1.28-9.63-1.114-13.658-3.005-5.053-9.98-7.332-14.992-9.865-18.982-9.594-38.021-17.455-58.817-22.197-14.801-3.373-34.053-5.694-47.55 2.897-21.574 13.732-32.742 42.905-44.96 64.2-6.833 11.908-15.494 22.018-18.471 35.835-2.73 12.668-1.718 27.368 5.494 38.42 4.481 6.866 10.882 11.948 18.467 15.049 1.593.651 9.499 2.803 9.988 3.559.116.18-.024.427-.036.64l.24-.375c.149.954.196.994-.268 1.831-3.977-.36-7.942-7.075-14.124-1.919-2.163 1.804-3.309 4.596-3.457 7.371-.108 2.025.563 4.203 1.12 6.136-1.514 1.358-2.588 2.595-3.535 4.4-2.298 4.38-20.789 18.39-25.599 22.217-6.915 5.501-35.39 29.124-38.973 34.878-2.76 4.433-3.977 10.507-5.208 15.558-9.093 37.308-1.153 80.343 9.6 116.452q5.472 18.66 12.142 36.927 6.671 18.265 14.512 36.06c4.3 9.608 8.604 19.174 14.366 28.011-2.487 8.483-4.928 16.988-7.532 25.436-1.484 4.813-3.31 9.565-4.538 14.446 1.595 1.402 3.302 3.089 5.243 3.996-4.85 4.872-5.436 29.703-5.42 37.21.053 25.557 3.693 52.146 11.802 76.44-8.79 1.616-17.627 2.76-26.445 4.188-6.935 1.122-14.199 3.247-21.245 2.764q-.855-.052-1.704-.16-.85-.11-1.69-.275t-1.667-.386q-.827-.221-1.638-.497t-1.6-.605-1.558-.71-1.507-.813q-.74-.43-1.448-.91c-4.902-3.35-9.067-9.036-10.225-14.915-.983-4.989-.353-10.925-.353-16.048l-.005-31.184.15-126.319.114-289.815V176.31l-.064-33.824c-.01-5.617-.359-11.399.005-16.992.499-7.678 4.579-16.535 8.951-22.771 7.007-9.991 16.957-17.239 29.13-19.347 12.098-2.096 24.605-2.303 36.705-4.424 1.585 6.048 4.344 22.79 9.726 25.878 1.775 1.018 3.638 1.39 5.667 1.31 5.8-.228 11.784-1.21 17.555-1.897 14.335-1.706 28.604-3.827 42.925-5.61l50.892-6.592c8.476-1.113 17.423-1.65 25.743-3.572 2.296-.53 3.818-2.437 5.014-4.366 4.192-6.76 4.117-17.586 4.843-25.367"/></svg>