<svg xmlns="http://www.w3.org/2000/svg" width="80" height="80"><defs><linearGradient id="a" x1="213.3" x2="157.367" y1="337.027" y2="419.892" gradientUnits="userSpaceOnUse"><stop offset="0" stop-color="#A22F5C"/><stop offset="1" stop-color="#B44D77"/></linearGradient></defs><path fill="url(#a)" d="M209.503 335.964c2.205-.635 3.728.606 5.495 1.711-.116.662-.463 1.675 0 2.26l.018 26.29c.015 28.638-5.283 35.794-34.541 36.006-4.053 13.563-17.427 22.162-30.24 13.654-14.988-9.952-9.964-32.656 7.984-35.862 10.849-1.938 20.424 6.327 22.256 16.711 8.4-.284 16.255 1.105 22.879-5.605 7.741-7.842 6.151-18.027 6.149-28.116z" transform="scale(.15625)"/><path fill="#FFAFCC" d="M24.926 60.208c2.881-.159 3.26 3.915.396 4.393-2.864.201-3.246-4.016-.396-4.393"/><path fill="#FFC8DD" d="M24.581 61.138c1.45-.107.747 1.017 0 1.507-1.045.59-.958-.803-.494-1.357.162-.058.329-.102.494-.15"/><path fill="#AE416D" d="M31.41 21.014C36.417 7.99 54.79 8.195 60.136 20.28c1.833 4.145 1.253 5.79 1.396 10.052 6.649.04 11.74 4.933 11.667 11.68-.062 5.73-4.557 10.838-10.296 11.37-1.3.12-2.643.057-3.95.057-3.57 0-7.499.609-10.33-1.974-.434.299-.867.577-1.336.817l-.002 4.402c0 1.536-.274 3.21.926 4.396 1.171 1.158 2.354.73 3.792.91.616-2.668 4.027-3.519 5.527-1.07.856 1.397.335 3.317-1.059 4.146-1.826 1.086-4.252-.137-4.468-2.217-.624-.082-1.23-.033-1.854-.055-3.642-.124-3.73-3.246-3.73-5.868l.003-4.164c-1.734.723-4.146 1.548-6.03 1.463v8.114c2.627.234 3.558 3.653 1.543 5.337-1.242 1.038-3.078.921-4.121-.337-1.54-1.856-.513-4.524 1.757-5v-8.114c-1.465-.015-3.019-.261-4.403-.75-.571-.203-1.61-1.037-1.574-.36-.072-.092-.018-.25 0-.353-.276-.173-.514-.367-.858-.268-.072-.314-.875-.656-1.134-.863-2.376 1.525-3.873 1.841-6.654 1.81l-5.085-.003c-1.358.01-2.69.04-4.027-.256-9.877-2.19-12.228-15.897-3.648-21.274 1.549-.97 3.776-1.765 5.622-1.576-.094-.436-.207-.88-.257-1.322-.89-7.746 8.048-12.579 13.859-7.996"/><path fill="#FFC8DD" d="M54.624 60.397c2.628-.294 3.585 3.018.794 4.204-3.543-.168-2.998-3.747-.794-4.204"/><path fill="#fff" d="M55.227 60.986c1.429-.179.168 2.813-1.242 2.226l-.043-.023c-1.844-1.023.213-1.94 1.285-2.203"/><path fill="#FFAFCC" d="M39.856 63.212c2.56-.29 3.246 3.48.534 4.249-2.914.24-3.305-3.981-.534-4.249"/><path fill="#FFC8DD" d="M39.756 63.525c1.663-.067 1.095 1.532 0 2.072-1.644.376-1.155-1.71 0-2.072"/><path fill="#A2D2FF" d="M7.922 43.731c.546.298.878 1.073 1.285 1.536 2.658 3.02 4.978 3.372 8.648 3.374h7.266c.611-.001 2.635.108 3.078-.212.845.725 1.515 1.757 2.644 2.658-2.49 1.796-5.417 1.535-8.318 1.535l-2.506.002c-1.358.007-2.643.02-3.98-.28-4.19-.944-7.383-4.366-8.117-8.613"/><path fill="#FFAFCC" d="M52.868 33.09c.283.359.445.852.59 1.28 3.348 9.87-4.85 20.158-15.028 18.905-2.877-.354-7.196-2.148-8.857-4.635.47.08 1.085.65 1.54.893 10.575 5.629 21.837-3.868 21.782-14.95-.003-.495-.137-1.003-.027-1.493"/><path fill="#A2D2FF" d="M68.533 33.576c7.297 6.264 3.371 18.368-6.094 19.012-1.697.115-3.444.036-5.146.036h-2.278c-2.094.001-3.914-.165-5.58-1.633l-.073-.066a46 46 0 0 1 2.092-1.857c.297.074.66.007.966.005l2.023-.005c2.537-.004 6.431.168 8.826-.5 5.305-1.482 8.427-7.73 6.353-12.708-.228-.547-1.114-1.775-1.09-2.284"/><path fill="#FFC8DD" d="M29.573 48.64c-4.021-4.278-4.895-10.966-2.232-16.18 3.599-7.046 12.223-9.85 19.25-6.196 2.54 1.321 5.402 4.056 6.277 6.826-.11.49.024.998.027 1.493.055 11.082-11.207 20.579-21.781 14.95-.456-.243-1.07-.813-1.541-.893"/><path fill="#DF5E81" d="M42.213 29.076c1.625-.145 2.212 1.12 2.205 2.534.996-.006 2.365-.212 3.147.528.821.775.857 2.093.058 2.897-.785.789-2.177.595-3.205.594 0 2.057.021 4.116 0 6.173-.04 3.905-2.91 6.514-6.776 6.439-5.773-.527-8.034-7.133-4.082-11.128 1.98-2.002 4.282-1.72 6.83-1.739V32.48c-.01-1.534-.156-3.153 1.823-3.403"/><path fill="#FFC8DD" d="M37.642 39.417h2.748c-.004 2.051.541 4.294-1.991 4.916-3.301.358-4.01-4.504-.757-4.916"/><path fill="#fff" d="M42.213 29.891c1.548-.182 1.313 1.543 1.307 2.55.647-.02 2.33-.081 2.9.046.834.186 1.278 1.235.615 1.887-.665.653-2.649.368-3.515.364l.001 4.909c0 3.268-.088 6.68-4.193 7.613-4.952 1.126-8.665-4.437-5.96-8.566 1.743-2.567 4.193-2.481 7.022-2.477v2.302c-1.025-.003-2.76-.14-3.698.206-1.794.663-2.509 2.636-1.834 4.377 1.236 3.19 6.162 2.6 6.436-.841.087-1.098.021-2.24.02-3.343l-.002-6.203c-.004-1.146-.395-2.341.9-2.824"/><path fill="#BDE0FE" d="M7.922 43.731c-1.165-5.554 2.698-11.665 8.432-12.476 2.605-.369 2.688.615 2.175-1.67-1.524-6.787 6.502-12.178 12.01-8.062 1.621 1.212 1.104 1.208 1.996-.912 3.77-8.967 15.7-11.263 23.008-5.008 4.394 3.76 5.152 7.76 5.15 13.069-.002 2.625.073 2.386 2.349 2.57 2.04.166 3.93 1.028 5.49 2.334-.024.509.862 1.737 1.09 2.284 2.074 4.978-1.048 11.226-6.353 12.708-2.395.668-6.29.496-8.826.5l-2.023.005c-.305.002-.67.07-.966-.005.356-.527.77-1.013 1.12-1.543 6.065-9.162.777-21.53-9.964-23.524-8.066-1.498-15.966 4.187-17.421 12.195-.868 4.775.357 8.407 3.01 12.233-.443.32-2.467.21-3.078.212h-7.266c-3.67-.002-5.99-.354-8.648-3.374-.407-.463-.74-1.238-1.285-1.536"/><path fill="#fff" d="M48.622 13.761c3.552-.338 10.28 6.068 7.33 7.068-.112.082-.26.13-.387.185-1.557-1.07-1.29-3.535-5.214-4.938-.644-.23-2.084-.351-2.332-1.115a.97.97 0 0 1 .603-1.2"/></svg>