<svg xmlns="http://www.w3.org/2000/svg" width="800" height="800"><path fill="none" d="M0 0h800v800H0z"/><path fill="#060939" d="M424.844 58.73c.193.09.401.152.578.27 1.594 1.078 6.096 5.57 6.39 7.135.115.606-.496 1.06-.844 1.51-1.754-.826-3.245-1.962-4.736-3.19-1.118-.919-2.787-2.6-2.777-4.169.004-.571.972-1.182 1.389-1.556M408.934 44.725c.635.038 1.373.034 1.965.298 2.015.9 6.207 5.22 7.182 7.104l-.57.546-1.449 1.018c-1.374-.239-4.778-4.454-6.047-5.73-1.208-1.215-1.096-1.667-1.081-3.236M415.598 58.77c.992.46 1.459.632 2.026 1.62-.197 2.647-4.435 5.577-6.383 7.296-.624.239-1.243.266-1.902.344l-.384-.544c.486-3.039 4.657-6.251 6.643-8.717M430.527 44.797c.973.429 1.217.449 1.776 1.331-.205 2.565-5.1 6.139-7.005 7.84l-1.057-.478c-.283-.46-.611-.699-.474-1.266.63-2.608 4.667-5.793 6.76-7.427M226.9 370.384c2.234-.057 4.502-.175 6.734-.046 1.415.082 2.458.226 3.42 1.313-.04 1.131-.265 1.308-.925 2.251-2.358.273-5.158.36-7.511.02-1.224-.177-1.846-.423-2.571-1.423.088-1.041.255-1.24.854-2.115M207.2 369.888c2.542.194 5.294.059 7.78.624 1.083.245 1.512.515 2.137 1.407-.338 1.036-.605 1.18-1.445 1.905-2.698.072-6.617.47-9.149-.544-.835-.334-.858-.513-1.177-1.293.366-1.046 1.01-1.457 1.854-2.099M221.705 377.498c.157.07.323.12.472.207.817.482 1.3 1.28 1.493 2.187.583 2.726.453 7.622-1.093 10.036-.56-.13-1.282-.223-1.722-.63-.634-.583-.841-1.722-.957-2.537-.414-2.93-.057-6.88 1.807-9.263M220.96 354.823c.782.03 1.247.074 1.942.447.39.528.656.985.808 1.632.633 2.693.65 7.474-.81 9.868l-1.659-.714c-.79-.872-.994-1.558-1.196-2.684-.443-2.465-.525-6.431.914-8.55M95.48 321.298c2.233.391 3.448 1.664 4.916 3.324 2.752 3.11 4.668 7.062 6.356 10.815 8.94 19.878 7.574 42.808 3.278 63.7-1.473 7.168-4.294 14.178-5.173 21.44-1.267 10.47.61 22.992.029 33.99 1.752-6.492 2.388-13.248 4.223-19.724 1.278-4.509 3.682-8.727 4.69-13.297 1.004-4.55.354-9.708.81-14.376 1.306-13.397 8.12-27.717 17.656-37.194 6.712-6.67 17.272-13.796 27.194-13.496 1.272.04 2.184.243 3.063 1.232 1.397 3.9-.33 9.697-1.495 13.547-6.833 22.57-22.11 35.584-42.22 46.225-4.266 7.595-8.598 22.318-9.823 30.78 2.485-3.557 4.478-7.51 6.82-11.173 7-10.946 16.14-20.041 28.02-25.576 5.247-2.445 14.15-5.31 19.815-3.021 1.052.425 1.977 1.139 2.313 2.268.885 2.978-3.075 9.963-4.536 12.691-8.657 16.174-19.768 24.021-36.863 29.281.669.701 1.315 1.394 1.845 2.21 1.296 1.998 1.53 4.508 1.462 6.841-.218 7.5-4.581 23.838-6.292 31.885-.294.846-.652 1.771-1.168 2.509-2.343 3.348-7.344 5.35-11.208 6.073-5.574 1.046-12.113.09-16.805-3.193-3.28-2.294-4.336-5.094-5.02-8.918-1.287-7.204-4.764-25.782-3.251-32.532.378-1.686 1.47-3.12 2.441-4.512-12.276-3.56-23.56-7.971-33.29-16.51-5.293-4.645-17.162-17.864-17.327-25.18-.016-.71.088-1.217.69-1.671 3.238-2.438 11.197-1.5 14.962-.735 18.621 3.78 35.923 17.083 46.352 32.645-1.367-4.366-2.992-8.598-4.452-12.926-3.367-1.95-6.535-4.444-9.721-6.684-8.384-5.894-17.255-11.794-24.14-19.467-4.176-4.655-13.505-18.851-12.817-25.08.14-1.273.683-1.682 1.609-2.413 4.26-.985 11.549 2.908 15.176 5.1 23.545 14.232 32.784 44.208 39.11 69.297.237-8.361-.698-22.884-2.924-30.958-1.59-5.765-4.707-10.999-6.89-16.549-5.558-14.125-8.648-30.16-8.5-45.31.11-11.394 2.56-27.035 11.085-35.358"/><path fill="#F3B479" d="m99.365 458.953-.527.188c-1.911-.525-3.718-1.652-5.13-3.039-.854-.84-1.395-1.604-1.415-2.808l.906-.417c2.334.773 4.153 1.626 5.314 3.922.346.686.6 1.43.852 2.154"/><path fill="#FBD991" d="M119.693 454.066c.426.004.165-.043.701.382l-.234.617c-3.45 2.553-7.308 3.922-11.473 4.754-.38-.005-.693-.125-1.054-.233.003-1.445 1.151-3.116 1.805-4.395 3.424-.088 6.861-.675 10.255-1.125"/><path fill="#F3B479" d="M88.848 454.587c2.083 2.172 2.974 3.886 5.763 5.515 6.752 3.943 16.589 3.85 23.36-.036 1.913-1.097 3.766-3.744 5.822-4.263l.77.496c1.053 2.894.165 6.946-.936 9.699-4.067 4.55-9.908 6.735-15.904 7.06-7.17.39-14.418-1.76-19.81-6.554-1.147-4.52-1.483-7.732.935-11.917"/><path fill="#FEFEFE" d="M49.606 377.587c2.75.06 5.726 1.256 8.205 2.4 17.817 8.22 28.322 27.465 34.883 44.987-4.816-3.381-8.128-7.664-11.794-12.191-2.236-2.41-4.475-5.065-7.402-6.65.794 3.101 8.78 10.774 11.284 13.596-4.067-2.513-7.84-5.486-11.576-8.46-10.317-8.21-22.033-19.81-23.6-33.682"/><path fill="#F3B479" d="M87.304 469.408c4.483 3.675 9.45 5.639 15.2 6.242 8.101.85 15.016-.817 21.356-6.016q-2.354 10.163-4.336 20.405c-.244 1.462-.41 3.14-1.26 4.4-2.034 3.012-6.25 4.63-9.698 5.154-4.828.734-11.464-.1-15.342-3.213-1.124-.903-2.072-2.054-2.61-3.401-2.26-5.67-2.615-17.08-3.31-23.571"/><path fill="#FEFEFE" d="M156.145 410.679c2.496-.371 5.19-.144 7.688.138-2.027 5.936-4.49 11.638-8.013 16.856q-.7 1.042-1.448 2.051-.747 1.01-1.54 1.983-.792.974-1.628 1.912-.836.936-1.714 1.835t-1.796 1.755q-.917.857-1.874 1.671-.955.815-1.947 1.585t-2.018 1.494-2.084 1.401q-1.058.677-2.145 1.305-1.088.628-2.203 1.206-1.115.577-2.255 1.104t-2.303 1-2.346.895-2.385.787-2.418.677c-4.03 1.03-8.38 1.397-12.492 2.18l-.285-.415c1.39-3.762 17.59-11.572 21.845-14.479 3.617-2.507 6.6-4.924 8.9-8.728-4.06 2.413-7.763 5.54-11.697 8.174-5.685 3.804-11.693 7.205-17.56 10.72 2.217-4.5 5.108-8.882 8.085-12.92 8.484-11.504 21.128-22.047 35.633-24.187M38.726 411.457c3.718-.294 7.266-.484 10.97.048 12.108 1.743 24.52 9.383 33.661 17.247 7.193 6.187 14.102 14.956 16.426 24.315-2.561-2.394-4.684-5.308-7.26-7.755-4.566-4.339-23.838-17.846-29.436-17.71l-.335.47c.711 1.191 2.252 1.552 3.496 2.16C72.224 433.16 93.25 445.76 95.2 451.4l-2.813-.562c-16.18-1.252-33.572-10.606-44.112-22.862-4.193-4.876-7.677-10.336-9.55-16.518M116.925 415.365c-.287-2.802.184-5.735.55-8.519 2.027-15.435 9.95-30.493 22.447-39.976 3.962-3.007 13.76-8.472 18.786-7.543.932.173.979.463 1.474 1.206.724 5.365-2.721 13.61-5.017 18.46-5.738 12.124-21.69 30.12-34.638 34.37-.197.064-.398.123-.597.185a12.3 12.3 0 0 0-3.005 1.817"/><path fill="#08112A" d="m121.352 405.821 1.608 1.2-3.03 6.527a12.3 12.3 0 0 0-3.005 1.817c1.282-3.295 2.825-6.398 4.427-9.544"/><path fill="#060939" d="M121.352 405.821c3.88-7.612 9.375-17.559 16.553-22.51l.795-.041.227.537c-1.531 2.608-4.12 4.74-6.012 7.137-3.968 5.026-7.071 10.37-9.955 16.076z"/><path fill="#FEFEFE" d="M96.317 324.237c10.82 11.087 14.744 29.59 14.58 44.554-.118 10.905-1.698 21.943-4.118 32.564-1.337 5.866-3.135 11.675-4.072 17.62-.936-4.394-1.896-8.767-2.195-13.263l-1.74.57-.117 1.23-.4-.07c-1.849-3.26-3.007-7.365-4.22-10.927-6.373-18.687-9.737-39.135-4.38-58.509 1.347-4.872 3.361-9.873 6.662-13.77"/><path fill="#060939" d="M98.424 394.198c.658-.84 1.13-1.82 1.647-2.751.144 4.742.148 9.533.44 14.265l-1.74.57c-.933-3.558-.373-8.377-.347-12.084"/><path fill="#060939" d="M98.424 394.198c-.001-3.582-.647-28.907.863-30.456 1.586 5.095.756 21.5.784 27.705-.518.931-.989 1.912-1.647 2.75M189.315 106.022c3.666-.299 7.537.167 11.099 1.064 10.812 2.722 36.172 19.239 41.913 28.93 8.608 14.532 6.874 34.221 2.942 49.91-7.917 31.581-29.137 68.101-54.06 89.17-5.436 4.595-11.389 8.222-17.465 11.879.012.137.032.274.038.412.06 1.29-.15 1.765-1.009 2.65l-.611-.011-.935-1.646c-2.08.004-4.908 1.801-6.935 2.537-3.648 1.324-7.52 2.06-11.326 2.759-15.32 1.43-23.596-4.89-35.706-12.984-4.342-2.904-9.113-5.693-13.102-9.055-8.72-7.349-12.496-22.2-13.385-33.088-.93-11.412.47-22.689 3.511-33.701 5.428-19.65 17.749-42.412 30.914-57.978 16.06-18.99 38.243-38.684 64.117-40.848"/><path fill="#FEFEFE" d="M189.6 108.756c11.31-.898 22.441 5.235 30.852 12.234-8.632-1.878-17.518-1.16-25.933 1.424-28.639 8.793-54.132 37.672-67.762 63.506-12.991 24.624-20.525 54.903-12.103 82.147 1.387 3.863 3.175 7.456 4.998 11.125-4.475-2.735-9.224-5.883-13.233-9.267-8.65-7.303-12.016-20.455-12.89-31.29-2.676-33.198 15.323-68.347 36.46-93.117 14.674-17.195 36.37-34.925 59.612-36.762"/><path fill="#FEFEFE" d="M207.231 122.805c8.483-.66 17.638.972 24.718 5.936 7.728 5.416 11.713 14.15 13.195 23.254 5.06 31.092-14.393 70.196-32.063 94.91-14.769 20.656-34.46 39.74-60.414 44.067-8.955.608-17.356-.802-24.564-6.536-9.22-7.335-12.637-20.51-13.848-31.686-3.387-31.227 11.211-65.303 30.449-89.309 15.462-19.296 37.174-37.83 62.527-40.636"/><path fill="#060939" d="M197.531 141.021c.41-.037.822-.08 1.234-.09 3.107-.088 6.134 3.707 8.215 5.743.157 2.828-.153 7.988 1.414 10.369 2.443 3.715 8.522.617 11.949 1.273 2.262.432 4.259 2.455 5.387 4.375 1.841 3.137 1.895 7.213.873 10.63-1.305 4.363-4.591 7.948-8.576 10.052-4.228 2.233-11.725.026-16.004-1.296q-.08 11.999-.014 23.996c.033 9.125.813 18.617-1.6 27.498-3.592 13.224-12.56 26.85-24.71 33.638-6.107 3.414-13.672 5.393-20.547 3.346-6.95-2.07-13.35-6.75-16.786-13.196-4.698-8.814-3.259-18.755-.505-27.91 1.088-3.541 2.758-7.096 4.55-10.335 5.845-10.562 16.61-22.182 28.576-25.57 2.011 2.448 4.625 4.4 6.444 6.993 3.053 4.35 1.549 10.41.64 15.261-7.959 4.065-15.382 8.986-18.98 17.54-1.48 3.518-2.718 8.73-1.107 12.346.493 1.11 1.164 1.747 2.332 2.101 2.071.628 4.147.152 6.02-.841 6.598-3.503 12.184-12.085 14.041-19.173 1.886-7.197.882-22.16.88-30.162l.152-32.032c-.01-5.08-.843-11.69.735-16.465 2.8-3.221 11.21-6.099 15.387-8.09"/><path fill="#FEFEFE" d="M169.025 197.207c1.693 0 2.813 1.492 3.96 2.595-13.128 6.574-22.721 15.724-27.914 29.668-3.796 10.195-5.16 20.726-.575 30.871l-.1.25c-1.186-.476-2.398-2.58-3.033-3.718-3.717-6.66-4.074-15.283-1.936-22.527 5.168-17.51 13.64-28.37 29.598-37.139M198.96 143.669c.124.02.252.029.374.063 1.153.327 2.028 1.974 2.696 2.934-4.914 1.78-9.886 4.075-14.338 6.814.237 12.987-.032 26.011-.113 39.002-.063 9.998 1.001 30.16-1.535 38.48-2.425 7.952-6.363 14.096-13.823 18.051l-.864-.366c-.602.137-.998.25-1.616.102-.385-.092-.316-.014-.424-.183 1.212-.954 2.419-1.917 3.535-2.983 4.721-4.51 8.427-10.435 10.052-16.781 2.312-9.026 1.108-23.314 1.089-32.843q-.106-22.877.337-45.75z"/><path fill="#FC697B" d="M203.573 148.83c1.743 1.26.895 8.216 3.288 10.686 3.062 3.16 9.862 1.791 13.895 1.788.878.707 1.846 1.425 2.457 2.388 1.55 2.443 1.506 5.868.77 8.567-.88 3.223-2.883 6.328-5.88 7.938-5.54 2.978-13.178-.402-18.747-1.913-.776 17.809 2.842 44.78-3.599 60.678-4.569 11.278-13.213 22.536-24.698 27.338-5.095 2.13-10.841 2.964-16.049.677-4.105-1.802-6.937-5.204-8.55-9.33-4.07-10.415-.592-22.253 3.658-31.974 5.521-11.9 14.122-18.011 25.544-23.625.358 3.82.14 7.647-.054 11.468-3.4 1.695-6.585 3.709-9.47 6.187-6.169 5.295-11.1 12.868-11.524 21.182-.193 3.77.763 7.435 3.416 10.217 2.07 2.173 4.88 3.459 7.898 3.437 5.274-.037 10.522-3.527 14.133-7.167 4.762-4.8 8.37-12.004 9.766-18.592 1.524-7.185.707-17.332.743-24.878l.11-48.797c4.042-2.609 8.483-4.398 12.893-6.275"/><path fill="#060939" d="M470.16 145.06c3.012-8.517 7.33-16.444 11.119-24.622 3.873-8.361 8.533-21.52 14.278-28.415 3.15-3.78 7.231-6.204 11.616-8.314 8.754-4.212 18.164-8.393 27.903-5.086 6.454 2.192 19.958 11.718 26.7 15.804l84.293 51.863 68.58 42.07c9.061 5.56 20.687 11.595 29.103 17.608 4.707 3.365 8.464 7.598 10.914 12.87 4.418 9.5 3.137 20.05-.464 29.599-2.438 6.464-6.042 12.617-9 18.865q-11.312 23.97-23.153 47.685l-40.094 82.768c-8.966 18.515-18.312 36.82-26.764 55.583q39.996 23.463 79.273 48.112c8.71 5.414 23.21 13.029 30.32 19.373 4.351 3.884 7.809 9.086 9.312 14.747 1.678 6.318 1.648 20.608.316 27.045q-.435 2.105-1.206 4.11-.772 2.006-1.86 3.86c-.655 1.124-1.379 2.215-2.113 3.288-1.712 2.505-5.185 4.654-7.727 6.292-14.591 9.408-29.796 18.112-44.623 27.174l-111.306 67.562-70.463 42.661q-17.296 10.606-34.787 20.886c-6.096 3.628-12.122 7.583-18.383 10.907-6.489 3.445-13.775 5.642-21.011 6.82-14.59 2.376-30.56 1.584-44.357-4.027-4.911-1.998-9.439-4.93-13.984-7.632l-22.255-13.486-81.985-49.92-110.965-67.362-38.086-22.999c-5.595-3.42-11.538-6.565-16.834-10.422-6.884-5.012-11.421-11.512-12.769-20.006-1.445-9.112-1.932-22.42 3.728-30.107 2.677-3.636 6.072-6.536 9.775-9.084 7.554-5.196 15.61-9.83 23.403-14.672l32.026-20.219 84.182-53.484 46.114-28.439c6.829-4.245 16.48-11.492 23.57-14.456 4.456-7.784 7.804-16.376 11.888-24.389q19.889-38.953 39.068-78.26 5.828-11.668 11.857-23.234c2.39-4.611 4.632-9.701 7.71-13.898 1.404-2.158 2.645-4.413 3.915-6.65-7.033-2.269-12.722-8.188-16.028-14.68q-.422-.822-.807-1.662t-.732-1.696-.654-1.728q-.308-.87-.576-1.755t-.496-1.78-.415-1.8q-.188-.904-.334-1.816t-.251-1.83q-.105-.918-.17-1.84-.062-.92-.084-1.844-.022-.925-.003-1.848.02-.923.082-1.845.061-.922.164-1.84t.247-1.83.33-1.819q.184-.904.41-1.8l50.427-38.037c7.35-5.602 15.001-11.038 22.115-16.919"/><path fill="#FEFEFE" d="m693.26 280.479.253.345q-.455 1.302-.935 2.595c-.548 1.47-1.213 3.64-2.737 4.34l-1.587-.668-1.349-.885-.011-.627c1.68-2.016 4.297-3.43 6.366-5.1M392.631 725.182c4.856 1.774 10.645 5.447 14.801 8.498.084 3.706.956 7.315 1.734 10.92-3.37-.313-11.159-6.033-14.244-7.948-1.03-3.784-1.653-7.607-2.29-11.47"/><path fill="#949CB8" d="M710.942 601.615c.875 1.21.066 4.646-.13 6.129-10.494 6.875-21.396 13.23-32.2 19.604-.828-1.341-.367-4.636-.337-6.23 5.5-2.463 10.456-5.888 15.569-9.046 5.684-3.512 11.455-6.877 17.098-10.457"/><path fill="#FEFEFE" d="M122.283 556.932c.451.536.83 1.24 1.215 1.829 4.668 7.119 13.659 11.78 21.046 15.498.01 3.494.208 6.95.436 10.435-5.414-2.39-11.625-6.38-15.739-10.672-4.361-4.552-7.084-10.755-6.958-17.09"/><path fill="#6C7392" d="M694.105 356.952c1.191 1.04 2.037 2.543 2.94 3.843q-8.255 16.53-16.127 33.246c-3.713 7.764-7.257 16.529-12.119 23.62-.63.919-1.417 1.531-2.333 2.142-1.045.114-1.214.159-2.145-.296-.471-.781-.637-1.367-.58-2.29.4-6.303 19.445-45.767 23.46-52.16 1.947-3.102 4.23-5.62 6.904-8.105"/><path fill="#FEFEFE" d="M771.827 555.07c.792 1.524-.131 6.199-.543 7.938-.955 4.022-3.206 8.243-6.204 11.091-5.432 5.158-14.29 9.284-20.78 13.18-9.99 5.998-19.833 12.232-29.856 18.182-.977-.997-.039-8.784-.021-10.744 4.666-3.345 9.88-6.16 14.782-9.16 6.244-3.821 12.382-7.841 18.696-11.545 5.631-3.303 11.836-6.267 16.86-10.47 2.983-2.495 5.037-5.175 7.066-8.472M683.255 287.822c2.137.815 3.983 2.044 5.903 3.265-4.892 12.335-11.548 24.215-17.09 36.303-3.884-1.833-7.627-4.085-11.39-6.163-4.187-2.265-8.182-4.84-12.205-7.382 11.824-8.329 23.214-17.342 34.782-26.023"/><path fill="#FC697B" d="M437.175 227.043c4.244 2.039 8.368 5.06 12.383 7.557q10.153 6.315 20.47 12.357c-.018 5.541-.675 9.45-4.119 13.926q-1.116.962-2.305 1.83c-2.418 1.742-5.513 2.52-8.456 1.988-4.748-.86-9.126-4.787-11.889-8.614-5.714-7.914-7.677-19.546-6.084-29.044"/><path fill="#FEFEFE" d="M399.684 203.737c11.42 7.405 23.177 14.21 34.493 21.808-.74 4.83-1.63 8.342-4.558 12.342q-.397.393-.808.772c-2.34 2.137-5.074 3.232-8.272 2.987-5.21-.4-10.296-4.272-13.534-8.212-7.043-8.57-8.4-19.007-7.32-29.697M472.723 248.923c4.433 2.09 8.694 5.08 12.872 7.662l20.903 12.81c-1.07 5.314-1.417 10.092-4.826 14.576-.211.22-.42.441-.645.647-2.233 2.048-4.735 3.237-7.818 3.044-5.054-.316-9.688-3.982-12.92-7.667-8.633-9.846-8.377-18.778-7.566-31.072M545.98 293.135l19.979 12.177c4.368 2.66 9.003 5.211 13.013 8.391-1.13 5.703-2.137 10.014-5.752 14.759q-.736.66-1.523 1.26c-2.42 1.814-4.981 2.833-8.043 2.256-5.478-1.034-10.524-6.326-13.43-10.858-3.093-4.82-6.472-14.215-5.866-19.918.283-2.668 1.06-5.436 1.622-8.067"/><path fill="#FC697B" d="m508.784 270.505 34.699 21.279c-1.1 4.946-1.85 9.949-4.876 14.14q-.902.84-1.878 1.593c-2.156 1.645-4.89 2.23-7.557 1.84-5.988-.876-11.527-6.171-14.869-10.952-3.607-5.159-6.984-13.4-6.81-19.771.073-2.653.81-5.51 1.291-8.13"/><path fill="#FEFEFE" d="m483.452 734.752.407.445c.327 3.24-1.313 8.348-2.218 11.51-15.702 8.629-38.395 10.313-55.535 5.788-3.513-.928-12.183-3.196-14.1-6.512-.863-3.547-1.378-7.224-2.019-10.82 3.725 1.627 7.226 3.376 11.122 4.62q.953.31 1.915.597.961.286 1.93.55.968.262 1.942.5.974.24 1.955.454.98.214 1.965.405.984.19 1.974.356.989.167 1.982.308.994.142 1.99.259t1.995.21q1 .091 2 .16 1 .067 2.003.11 1.002.043 2.006.061 1.002.018 2.005.012 1.004-.006 2.006-.038 1.003-.03 2.005-.087t2.002-.137 1.996-.186q.998-.105 1.993-.235t1.986-.284q.992-.155 1.978-.334.988-.179 1.97-.382.983-.203 1.96-.43.977-.228 1.948-.48.97-.25 1.936-.526.965-.275 1.922-.574.957-.3 1.907-.621.95-.323 1.892-.669t1.875-.715 1.856-.76q.924-.392 1.837-.807.914-.415 1.816-.852.903-.436 1.796-.896"/><path fill="#FC697B" d="M581.46 315.407c3.706 1.863 7.359 4.43 10.952 6.555 7.99 4.725 16.047 9.363 23.767 14.522-.618 5.303-1.895 10.327-4.104 15.193-.457.421-.9.844-1.434 1.171-2.694 1.656-6.002 2.332-9.095 1.679-6.202-1.31-11.59-6.424-14.855-11.649-5.125-8.207-7.467-17.998-5.23-27.471"/><path fill="#FEFEFE" d="M147.266 576.355c8.221 4.277 16.836 9.536 24.464 14.81.418 2.526.565 5.51 2.312 7.518.567.651.26.465 1.156.52.086-.116.185-.224.258-.35.981-1.683-.232-4.437-.738-6.167l40.7 24.672c5.863 3.562 12.964 6.893 18.102 11.37q.104 1.915.124 3.833c.315 2.482.934 4.909 1.5 7.343l-54.105-33.227c-10.925-6.598-22.18-12.758-32.71-19.99-1.013-3.421-1.06-6.793-1.063-10.332M235.694 629.9c9.967 5.57 19.683 11.66 29.466 17.547 7.305 4.397 14.942 8.597 21.937 13.464.036 1.883.127 3.647.472 5.509.893-1.066 1.483-2.23 2.127-3.457.244-.053.484-.186.732-.158 1.161.127 18.381 11.115 20.898 12.661l54.573 33.006c7.987 4.82 16.19 9.45 24.02 14.51q.172.111.343.225c-.512 3.74.775 7.82 1.563 11.46-11.714-6.697-23.071-13.99-34.606-20.984l-65.086-39.664-37.086-22.324c-5.606-3.416-11.488-6.723-16.858-10.486-1.238-3.665-1.844-7.504-2.495-11.309"/><path fill="#08112A" d="M289.696 662.963c.597 2.642 1.221 5.171 1.209 7.896l-.002-.243-.976 1.078.665.089-.467-.651-.579.198c-1.187-1.44-1.498-3.146-1.977-4.91.893-1.066 1.483-2.23 2.127-3.457"/><path fill="#FEFEFE" d="m675.182 618.32.266.18c1.022 2.189.123 7.857.04 10.454Q624.78 660.4 573.708 691.255l-50.276 30.218c-12.89 7.7-25.886 15.168-38.562 23.23.532-2.21 2.191-7.123 1.516-9.228a18 18 0 0 1-.492-1.884c6.16-4.932 18.142-11.193 25.29-15.456l45.667-27.557 77.278-46.947c13.679-8.42 27.23-17.136 41.052-25.311"/><path fill="#FBD991" d="M541.97 305.337c.564 2.018.836 4.146 1.346 6.189 2.101 8.427 6.603 15.94 14.228 20.467 3.398 2.016 7.422 3.327 11.355 2.24 4.292-1.185 6.914-4.411 9.085-8.072 1.233 5.753 2.571 10.562 5.373 15.769-3.011 6.515-14.595 39.111-17.352 41.834l-.759-.09q-16.027-10.21-32.272-20.066c-6.316-3.887-12.73-7.646-18.762-11.97 2.835-5.917 5.201-12.112 7.72-18.175 2.92-7.026 6.066-14.054 8.37-21.31 1.369-.021 2.764-.124 4.101-.43 3.821-.875 5.644-3.228 7.566-6.386"/><path fill="#FC697B" d="M526.768 157.26c11.194 6.179 21.895 13.167 32.631 20.098-10.924 10.204-24.316 18.983-36.253 28.075-17.144 13.06-33.99 26.962-51.826 39.06q-16.71-9.707-33.233-19.727c10.455-8.94 21.926-16.728 32.91-24.993q28.06-21.027 55.77-42.513M599.34 201.095c2.687.966 5.83 3.353 8.314 4.858q12.445 7.624 24.773 15.438c-13.929 11.63-28.948 22.257-43.44 33.198-15.106 11.405-29.904 23.213-45.07 34.534-11.07-7.182-22.506-13.786-33.754-20.682q44.333-34.012 89.178-67.346"/><path fill="#FEFEFE" d="M634.734 223.016c5.023 2.66 9.77 5.81 14.646 8.726 6.457 3.861 13.022 7.535 19.396 11.534-9.174 8.267-21.142 16.493-31.147 24.111q-28.478 21.954-57.346 43.39c-2.127-.186-28.719-17.387-33.586-19.957 4.956-4.7 10.772-8.736 16.212-12.868l23.059-17.622 27.9-21.191c6.933-5.373 13.739-11.02 20.866-16.123M562.224 178.81c4.128 1.32 11.947 6.995 15.986 9.473 6.21 3.81 12.527 7.439 18.745 11.236-3.626 3.054-7.688 5.731-11.493 8.579l-25.267 18.932c-17.48 13.126-34.579 26.749-52.092 39.843l-.398.096c-4.228-2.017-8.292-4.906-12.284-7.373q-10.866-6.624-21.604-13.452c15.763-11.268 31.052-23.335 46.445-35.106 14.013-10.714 28.23-21.154 41.962-32.229"/><path fill="#FC697B" d="M671.205 245.2c3.452.627 31.475 18.095 36.568 21.173-7.241 5.068-14.25 10.6-21.373 15.849L618.144 333.1c-.275.145-.093.062-.607.192-1.47.371-31.985-18.52-35.282-20.508 6.007-5.124 12.813-9.661 19.154-14.391l26.278-20.013c14.543-10.928 28.665-22.692 43.518-33.18"/><path fill="#FEFEFE" d="M489.425 134.265c3.879 1.917 7.623 4.622 11.348 6.87q12.04 7.164 23.923 14.587c-3.484 3.084-7.62 5.758-11.323 8.601q-12.582 9.84-25.453 19.299l-52.397 39.4q-10.532-6.635-21.136-13.153c-4.628-2.85-9.43-5.567-13.84-8.746 18.752-14.551 37.897-28.611 56.839-42.914 10.514-7.94 20.85-17.01 32.039-23.944"/><path fill="#FBD991" d="M436.06 248.219c1.988 1.541 2.985 6.108 4.433 8.362 1.576 2.458 3.962 4.867 6.26 6.664 3.563 2.79 8.102 4.87 12.718 4.209 4.468-.642 7.314-3.534 9.94-6.93.884 8.911 4.697 17.337 11.208 23.542 3.683 3.509 8.57 6.571 13.842 6.28 4.792-.263 7.831-3.291 10.771-6.709 2.971 8.808 5.378 15.482 12.06 22.158-4.516 10.621-8.384 21.505-13.005 32.084-1.004 2.181-1.685 4.488-2.42 6.77-4.569-2.16-8.85-5.235-13.131-7.927l-22.35-14.035q-17.245-10.678-34.28-21.689c-5.049-3.24-10.762-6.178-15.34-10.018 1.554-4.385 3.941-8.757 5.862-13.012zM645.887 315.547c8.033 5.088 16.302 9.68 24.644 14.233-4.929 11.559-10.697 22.835-16.194 34.13l-15.951 33.28c-3.64 7.448-7.542 14.815-10.865 22.41-5.523-2.7-10.838-5.934-16.166-9.003-10.587-6.15-21.287-12.2-31.675-18.68 1.057-3.804 2.8-7.601 4.223-11.297l10.448-26.391c2.377 1.26 4.632 2.397 7.308 2.92 3.47.678 7.416.293 10.35-1.828 5.105-3.691 5.897-13.6 6.861-19.457q13.662-9.955 27.017-20.317"/><path fill="#293058" d="M474.212 142.058c2.47-6.031 5.53-11.736 8.204-17.67 3.703-8.224 9.574-23.533 14.506-30.304 1.85-2.54 4.146-4.499 7.086-5.664 5.016-1.988 11.169-2.295 16.105-.036 9.214 4.22 17.734 10.914 26.437 16.146l70.32 42.801 74.01 44.913c10.373 6.274 23.872 12.973 33.317 20.01 3.858 2.873 6.662 6.755 8.334 11.257 4.178 11.25.264 19.54-4.372 29.776q-3.601 7.967-7.296 15.892-73.78 158.198-152.727 313.882l-20.66 41.687c-3.988 8.06-8.277 15.938-12.183 24.045l-12.927 26.518c-3.018 6.21-5.827 12.75-9.528 18.58-3.511 5.532-8.769 10.657-15 12.97-5.104 1.896-9.45.797-14.14-1.491-6.27-3.06-12.275-7.129-18.246-10.751q-16.97-10.28-33.836-20.732l-79.949-48.332c-14.081-8.618-28.019-17.491-42.303-25.765q-11.009-6.283-21.926-12.724c-3.585-2.118-7.438-4.093-10.765-6.589-4.69-3.517-8.007-8.502-9.904-14.02-3.896-11.34.63-19.014 5.594-28.99l42.189-85.697c5.897-12.03 12.507-23.733 18.057-35.931.945-2.077 2.408-4.81 2.312-7.124l-.545.503-1.157.231c1.83-3.983 3.554-8.475 5.985-12.1.523-1.2.831-2.185 1.006-3.485.613-.433.367-.358.982-.494 1.385-.307 1.856-.536 2.885-1.528q26.34-53.572 53.382-106.793c3.406-6.835 6.665-13.748 10.21-20.512 2.248-4.292 5.615-8.843 6.97-13.457.202-.684.23-1.136-.112-1.77l-1.508.769c1.404-2.158 2.645-4.413 3.915-6.65a53 53 0 0 0 5.312.447c-7.588 16.861-15.918 33.141-24.202 49.66l-22.428 45.098-67.742 136.775-13.292 26.578c-2.777 5.679-5.329 11.476-8.206 17.104-5.051 9.876-11.298 20.034-14.999 30.496-1.815 5.128-1.97 10.318.002 15.426 1.803 4.668 4.929 8.375 8.98 11.253 4.793 3.404 10.2 6.215 15.278 9.186l28.261 16.64 92.463 55.645 48.21 29.11c7.164 4.319 14.282 9.555 21.961 12.873 4.425 1.911 8.498 2.087 12.995.335 4.922-1.918 8.557-6.615 11.195-11.011 3.415-5.69 5.747-12.227 8.628-18.21 5.584-11.593 11.483-23.117 17.222-34.642l62.144-125.16 58.277-117.252c4.59-9.449 8.579-19.168 13.014-28.685l23.86-50.122 23.363-49.43c3.273-7.026 6.847-14.034 9.764-21.207 2.697-6.634 3.893-13.944.88-20.71-.908-2.036-2.074-3.795-3.945-5.04-5.64-3.756-11.664-7.096-17.477-10.587l-40.845-24.237-99.28-60.315c-11.275-6.726-22.265-14.009-33.478-20.857-4.848-2.961-10.105-6.736-15.423-8.754-3.498-1.327-8.273-1.399-11.673.257-11.31 5.507-17.154 31.138-24.69 41.54-1.9 2.62-4.315 4.465-6.85 6.425"/><path fill="#293058" d="M344.077 391.842c-.882 1.893-1.633 3.89-3.086 5.419-.925.33-.814.484-1.787.087.523-1.2.831-2.184 1.006-3.484.613-.433.367-.358.982-.494 1.385-.307 1.856-.536 2.885-1.528"/><path fill="#949CB8" d="M524.821 80.132c3.746-.233 6.967-.276 10.469 1.363 8.583 4.018 17.437 10.644 25.662 15.611q35.7 21.693 71.13 43.824l73.792 45.24q10.35 6.317 20.763 12.527c6.045 3.565 12.318 6.93 17.93 11.163 4.093 3.088 6.967 7.488 8.622 12.311 2.116 6.163 2.134 13.295.468 19.567-1.615 6.083-4.722 11.874-7.44 17.525L737 278.483l-38.258 78.45c-.988-.896-2.436-2.336-3.858-2.432-1.13-.077-2.499.664-3.38 1.299-2.577 1.857-4.537 4.871-6.17 7.553-4.207 6.91-7.352 14.505-10.852 21.79-4.452 9.264-11.545 20.705-13.235 30.781-.298 1.774-.438 4.192.837 5.651.996 1.141 2.295 1.112 3.68 1.09q.211-.003.424-.01l.282.396c-1.506 4.01-3.71 7.863-5.593 11.718q-5.049 10.325-9.965 20.714-20.95 44.973-43.408 89.212-24.285 49.92-49.671 99.289l-14.277 28.778c-2.7 5.47-5.26 11.108-8.282 16.406-5.81 10.184-10.16 13.847-21.348 16.933-4.024.863-7.94 1.326-12.057 1.382 2.88-1.807 5.64-3.824 8.088-6.19 1.743-1.687 3.334-3.548 4.597-5.622 6.258-10.274 11.789-23.304 17.158-34.231l30.228-60.817q68.354-133.85 132.412-269.809l21.267-44.887c6.375-13.274 12.975-26.647 18.518-40.291 1.547-3.806 2.598-7.695 2.65-11.824.095-7.6-2.768-15.607-8.177-21.04-6.983-7.01-26.258-16.727-35.457-22.242l-73.663-44.468-73.004-44.52c-7.884-4.718-15.417-10.662-23.59-14.797-4.228-2.14-8.527-2.04-13.119-2.09 4.97-1.646 9.935-3.351 15.044-4.523"/><path fill="#060939" d="M616.259 135.755c3.687.959 28.024 15.848 31.47 18.856.313 1.138-.087 1.486-.582 2.528-2.98-.69-27.635-16.3-31.306-18.948-.299-1.12-.018-1.391.418-2.436"/><path fill="#FEFEFE" d="M509.63 95.755c4.068-.323 7.154.657 10.761 2.407 4.411 2.141 8.62 4.953 12.809 7.497 9.823 5.967 19.429 12.253 29.203 18.291l78.027 47.29q27.615 16.932 55.444 33.51 7.327 4.429 14.717 8.752c3.565 2.071 7.443 4.047 10.753 6.507 2.527 1.878 4.256 4.596 5.222 7.574 3.102 9.569-6.941 27.279-11.355 36.174l-4.813 1.822c-1.614-1.236-3.304-2.35-4.996-3.475-6.238-4.43-13.255-8.073-19.826-11.979l-42.085-25.083-76.65-46.7c-15.708-9.615-31.325-19.46-47.204-28.787-4.578-2.688-28.47-18.053-31.61-18.263-.62.606-1.208 1.042-1.943 1.499l-.257-.425c4.097-8.346 7.697-16.942 11.783-25.296 2.836-5.799 5.817-9.184 12.02-11.315"/><path fill="#060939" d="M601.532 170.309c.943-.063 1.946-.147 2.881.02 4.12.726 22.039 12.158 26.037 15.203 1.285.979 2.486 2.181 3.352 3.552 1.096 1.736 1.73 3.83 1.211 5.866-.495 1.94-1.689 2.934-3.334 3.936a7.8 7.8 0 0 1-2.883-.664c-4.428-1.957-26.073-14.77-28.973-17.974-1.112-1.23-1.82-3.232-1.67-4.886.203-2.246 1.738-3.699 3.379-5.053"/><path fill="#FEFEFE" d="M602.834 172.969c4.21.218 18.038 9.736 22.395 12.448 2.5 1.556 6.59 4.203 7.04 7.361.23 1.625-.216 2.29-1.187 3.478-6.5-3.232-22.423-12.186-27.879-16.78-1.312-1.106-2.198-1.88-2.38-3.656.325-1.307 1.088-1.944 2.01-2.851M340.21 393.864c-.175 1.3-.483 2.284-1.006 3.484-2.431 3.626-4.156 8.118-5.985 12.101-3.618 7.872-7.911 15.43-11.716 23.215l-40.26 81.809q-4.725 9.68-9.64 19.267c-2.291 4.43-4.95 8.89-6.668 13.581-1.637 4.469-2.276 9.48-1.7 14.209.938 7.698 4.671 15.289 10.85 20.105 4.781 3.726 10.646 6.64 15.884 9.74q16.49 9.662 32.853 19.538l109.49 66.44c11.86 7.222 23.614 14.58 35.547 21.688 5.49 3.27 11.068 7.18 16.993 9.586 6.759 2.745 17.54 1.909 24.694.971 7.952-1.042 15.302-2.92 21.013-8.846 7.933-8.232 12.23-20.354 17.278-30.48l17.659-35.424 64.773-129.813q6.713-13.62 13.222-27.337c1.606-3.375 3.518-9.178 5.78-11.877.916-1.094 1.535-1.203 2.927-1.281.024-.607-1.22-1.669-1.66-2.158q1.608-3.35 3.32-6.647c26.583 16.902 54.026 32.446 80.744 49.143 8.797 5.498 18.509 10.49 26.734 16.792 2.871 2.2 4.941 4.613 6.865 7.664 3.739 5.928 4.813 12.467 3.165 19.27-1.232 5.088-4.957 10.223-9.05 13.442-6.348 4.992-16.06 9.892-23.157 14.19l-50.461 30.638-117.685 72.007c-25.03 15.177-50.357 29.858-75.177 45.389-22.54 14.103-40.959 20.994-68.077 14.62-4.693-1.103-9.604-2.628-13.856-4.926-12.503-6.757-24.495-14.564-36.7-21.846q-46.693-27.904-93.058-56.354L183.58 594.747c-16.062-9.715-33.306-19.136-48.917-29.406-3.832-2.52-7.532-5.071-9.953-9.04-3.134-5.137-3.97-11.652-2.532-17.464 1.31-5.296 4.717-9.584 8.914-12.94 7.986-6.385 17.546-11.39 26.26-16.788l41.574-26.209q70.148-45.303 141.285-89.036"/><path fill="#FEFEFE" d="M433.917 236.324c.819 1.128.965 5.478 1.247 7.103q-4.644 11.516-9.929 22.753c-2.548 5.56-10.687 21.016-11.319 26.128.1.11.193.226.298.331 3.567 3.53 14.17 9 18.95 12.056l43.879 27.616c6.85 4.3 13.588 9.048 20.587 13.067 1.65.949 3.46 1.967 5.404 1.985 1.812-1.156 14.58-35.393 16.185-39.833 2.72 1.765 5.49 3.114 8.532 4.224-3.607 9.629-12.321 33.13-17.674 40.484 5.23 4.657 13.249 8.643 19.29 12.332 12.72 7.767 25.425 15.432 37.828 23.703 2.219-3.414 3.676-7.497 5.213-11.259 4.285-10.49 7.69-21.43 12.39-31.728 2.136 2.97 4.633 5.229 7.436 7.555-2.942 6.235-14.675 34.128-15.232 39.773 2.35 3.015 46.294 28.53 51.983 30.674 1.827-5.32 4.542-10.297 6.97-15.36l11.099-23.074q16.117-32.908 31.664-66.09c6.646-13.834 14.052-27.587 19.616-41.894 4.88-3.63 9.786-8.17 15.585-10.122-4.683 12.089-10.813 23.807-16.392 35.507q-12.743 27.136-25.833 54.106c-4.894 10.07-9.32 20.344-14.147 30.442q-20.2 42.038-41.14 83.713c-9.982 20.968-20.676 41.657-31.114 62.4l-34.663 70.012-26.426 53.349c-5.088 10.4-10.797 23.65-16.78 33.342-1.836 2.975-5.119 6.331-8.239 7.955-2.844 1.48-6.423 2.147-9.515 1.074-8.032-2.788-19.12-11.018-26.763-15.662q-27.307-16.235-54.365-32.881c-24.101-14.57-48.18-29.318-72.487-43.532l-32.765-19.566c-6.892-4.046-14.208-7.76-20.838-12.2-3.399-2.277-6.207-5.19-7.896-8.963-2.18-4.87-2.307-10.293-.694-15.342 2.097-6.565 5.711-12.597 8.693-18.783 7.903-16.398 16.357-32.517 24.36-48.86l70.32-142.376 30.032-59.933c5.966-12.066 12.452-24.242 17.386-36.766 4.44-1.76 6.778-3.385 9.264-7.46"/><path fill="#060939" d="M398.622 325.203c5.024 1.958 10.202 5.954 14.78 8.84l30.857 19.646c15.816 10.15 31.494 20.633 47.453 30.541 13.568 8.425 27.44 16.458 41.148 24.663 16.192 9.691 32.133 19.798 48.272 29.577 6.984 4.232 24.98 13.63 29.588 18.528-3.08 8.59-8.201 17-12.337 25.163l-20.005 40.177-43.143 85.917c-6.213 12.436-12.097 25.065-18.467 37.42-.7 1.358-1.34 2.554-2.445 3.641-7.863-3.393-15.287-9.009-22.563-13.57l-32.726-20.084-98.987-60.023c-9.622-5.868-19.353-11.586-28.921-17.536-9.846-6.122-19.611-12.564-29.777-18.14 1.432-4.41 3.724-8.58 5.738-12.747q4.972-10.436 10.278-20.706l26.391-51.769 39.788-79.85q4.13-8.03 8.052-16.164c2.17-4.504 4.206-9.389 7.026-13.524"/><path fill="#FEFEFE" d="M399.483 328.612c3.368 1.541 6.627 3.873 9.767 5.836q10.398 6.564 20.707 13.267c19.939 12.758 39.964 25.332 59.734 38.358-19.346 39.44-39.784 78.22-59.874 117.275-11.935 23.2-23.236 46.745-35.508 69.77-8.189-3.815-16.543-9.81-24.341-14.509-14.184-8.547-28.602-16.806-42.64-25.585-6.055-3.787-16.781-11.625-22.934-14.027 12.115-26.643 26.022-52.611 39.315-78.683 11.14-21.847 21.79-43.974 32.746-65.916 7.582-15.18 16.37-30.189 23.028-45.786"/><path fill="#060939" d="M335.247 511.927c4.476 1.635 49.226 28.108 50.81 30.32.324.451-.158 1.605-.29 2.15-4.36-1.423-15.73-9.384-20.42-12.188-9.976-5.964-20.443-11.42-30.18-17.736-.485-1.067-.204-1.434.08-2.546M407.587 357.639c1.02.053 1.767.24 2.675.724 5.154 2.743 52.318 32.837 54.568 35.315-2.69 7.696-7.3 15.185-10.908 22.52q-14.487 29.109-29.405 57.999-8.333 16.816-16.89 33.52c-2.698 5.378-6.5 15.066-10.35 19.249-3.664-1.046-12.133-7.468-15.918-9.768q-13.436-8.014-26.78-16.18c-4.93-3.002-10.05-5.872-14.73-9.25 1.935-4.642 4.46-9.163 6.706-13.666l15.583-30.861 27.921-56.461c3.639-7.363 13.002-28.15 17.528-33.141"/><path fill="#FC697B" d="M408.698 360.334c5.46 3.905 11.35 7.333 17.03 10.915 12.031 7.585 24.209 15.101 35.89 23.213-2.66 6.799-6.516 13.437-9.725 20.033q-13.755 27.765-28.025 55.269l-17.173 34.241c-3.246 6.506-6.27 13.432-10.183 19.554-17.585-11.155-35.491-22.188-53.496-32.63l41.214-82.858c7.891-15.922 15.415-32.462 24.468-47.737"/><path fill="#FEFEFE" d="M420.077 395.02c1.057-.07 1.702-.123 2.714.267.494.66.702 1.073.77 1.88.113 1.322.308 2.618.505 3.93 1.74-.506 3.456-1.42 5.258-1.681 1.138-.164 2.27-.145 3.193.532-1.075 2.618-4.866 3.633-7.273 4.673.173 3.123 1.602 6.774 1.113 9.84-.22 1.376-.747 1.49-1.79 2.227-2.324-2.477-2.333-8.157-2.854-11.481-2.023.802-4.203 1.855-6.317 2.346-.973.227-1.853.105-2.7-.45-.59-.387-.482-.57-.623-1.198 1.092-1.93 6.864-3.103 9.039-3.885-.534-2.292-.742-4.667-1.035-7M396.22 412.302c1.611.53 33.707 19.035 35.817 20.804.436 1.296-.091 2.347-.507 3.578-4.554-2.149-34.356-18.625-36.651-21.47.032-1.124.756-1.993 1.34-2.912M391.824 424.345c6.456 3.657 32.453 17.825 36.395 21.734.06 1.168-.503 1.726-1.08 2.712-3.794-.76-33.222-18.391-36.362-21.406-.142-1.153.523-2.06 1.047-3.04M491.827 387.707c5.378 1.978 10.738 6.17 15.74 9.102 13.311 7.801 26.676 15.693 39.807 23.79 4.202 2.59 8.258 5.405 12.469 7.983q12.647 7.795 25.412 15.397c7.436 4.346 15.483 8.48 22.247 13.83-3.485 9.664-10.631 21.914-15.4 31.436l-33.12 65.952-30.446 60.896-9.594 19.474c-1.746 3.518-3.355 7.253-5.486 10.548-6.338-3.401-12.43-7.459-18.554-11.24l-28.71-17.694-69.31-42.131c2.573-7.109 6.68-14.038 10.084-20.796q10.16-20.284 20.543-40.456l40.064-77.745c8.17-16.051 15.764-32.469 24.254-48.346"/><path fill="#293058" d="M477.566 512.941c.711.243 1.266.394 1.997.535 3.183.61 40.753 23.515 42.29 25.872.541.829-.47.913.548 1.49.228.13.436.29.654.436-.043 2.945-26.385 74.166-29.325 79.943-4.601-2.444-8.996-5.444-13.413-8.208-4.84-3.03-10.151-5.947-14.458-9.713 5.045-6.502 9.964-21.28 13.238-29.275 4.095-10.001 8.908-20.165 11.869-30.56-2.705 4.045-5.068 8.345-7.647 12.475-5.313 8.509-10.673 16.965-15.846 25.562-3.509 5.832-6.836 11.98-10.746 17.54-3.499-1.841-6.844-4.526-10.154-6.726-4.98-3.31-10.09-6.396-15.164-9.557 2.968-6.421 7.693-12.672 11.574-18.613q11.994-18.6 24.57-36.81c2.826-4.148 6.556-11.048 10.013-14.39"/><path fill="#060939" d="M542.51 454.13c2.911-3.518 5.035-7.004 4.667-11.788-.141-1.815-.666-3.642-2.15-4.81-1.263-.996-3.358-1.58-4.952-1.357-2.566.358-6.344 6.21-8.298 5.262-.207-1.467.182-2.396 1.054-3.582 1.642-2.232 4.146-4.053 6.919-4.5 2.332-.378 4.678.338 6.518 1.791 2.315 1.827 3.744 4.664 3.947 7.596.315 4.553-1.788 9.058-4.76 12.403a16 16 0 0 1-1.549 1.5c-2.494-.06-5.992-.174-8.01 1.567-.82.708-.864 1.046-1.062 2.049.739 2.039 6.196 5.065 8.03 6.815 2.083 1.987 3.877 4.304 5.51 6.668 2.884 4.176 5.35 8.783 6.286 13.817 1.203 6.465-.81 48.912-3.195 54.384-1.878 1.102-14.37.918-16.635.21-.888-.277-1.333-.491-1.778-1.332-.096-7.393 2.317-16.995 3.132-24.693l-.257.52c-1.635 3.35-8.575 22.718-9.33 23.584-.11.126-.953.405-.996.416-.974.248-1.696-.105-2.546.624-.218-.145-.426-.307-.654-.436-1.017-.577-.007-.661-.547-1.49-1.538-2.357-39.108-25.262-42.29-25.872a14 14 0 0 1-1.998-.535l-.043-1.078c-.973-.885-1.729-1.629-2.397-2.766-.146-1.352.447-2.367.99-3.563l-.554-.49-.711.058c-3.2-.388-4.297-1.93-6.178-4.343-1.97-2.523-6.573-8.303-6.496-11.557.025-1.086.668-1.56 1.382-2.25 3.725-3.607 8.488-6.748 12.575-9.986 6.387-5.058 12.672-10.592 19.39-15.18 7.48-5.11 15.48-7.8 24.624-6.024 4.138.804 8.147 2.724 12.018 4.355 1.103-2.036 2.218-4.929 4.59-5.726 1.767-.594 3.913-.358 5.754-.26"/><path fill="#FEFEFE" d="M474.85 505.102c-.314-1.19-.537-1.992.045-3.165 1.958-3.943 7.624-7.637 10.992-10.42-1.835 2.82-7.862 12.738-9.771 14.017l-.554-.49z"/><path fill="#BEF5E3" d="M515.298 457.634c3.158.203 6.146.84 9.17 1.744l-1.048 1.146c-.829.006-.512.085-.977-.07-1.474 1.876-2.345 4.574-3.405 6.736l-.32-.145c-1.578-2.854-2.43-6.308-3.42-9.411"/><path fill="#BEF5E3" d="M524.469 459.378c5.992 2.816 12.31 5.521 17.125 10.19-3.249 4.567-5.38 6.481-10.947 7.773-3.85-1.55-6.588-3.032-9.04-6.52.53-2.003 2.833-7.737 1.712-9.421-.235-.355-.573-.653-.876-.947.465.156.148.077.977.071zM501.659 460.905l.368.11c-.066 2.149-2.436 5.658-3.463 7.685-2.73 5.39-5.805 12.308-9.847 16.803-4.897 5.445-11.505 9.085-16.032 15.024l-.339.45-2.421-3.172c-1.88-2.593-3.556-5.371-5.3-8.06 5.539-4.843 11.483-9.272 17.227-13.87 6.461-5.176 12.643-10.768 19.807-14.97"/><path fill="#BEF5E3" d="M505.387 459.126c2.449-.68 4.799-.972 7.325-1.203 1.24 4.801 2.615 8.528 5.305 12.698-2.962 4.079-5.715 8.248-8.758 12.271-.836 1.106-.41 2.55-1.355 3.254l-1.262-1.873c-.621.694-.81 1.566-.786 2.497.063 2.34 1.704 5.415-.21 7.453-1.631 1.735-2.487 1.692-2.7 4.31l.778.442c1.44-.772 1.57-2.524 2.574-3.7 1.18-1.384 3.679-1.082 5.068-2.54 2.146-2.252 1.789-6.926 2.951-9.726 1.306-3.147 3.746-6.252 5.61-9.115 3.638 3.494 7.498 5.097 12.153 6.845 1.296-.02 2.164.229 3.372.682 2.478.227 6.752 1.037 8.846-.42.111-.077.201-.18.301-.27l-.078-.727c-2.144-1.725-5.281-1.575-7.873-1.313q-1.691.18-3.366.479c4.973-1.67 6.84-3.773 9.914-7.93 3.517 4.541 6.983 9.725 8.43 15.362 2.713 10.57-1.23 40.944-2.092 53.47-4.687-.146-9.41-.192-14.087-.483 1.67-9.679 2.626-19.5 4.426-29.141.76-4.064 1.888-8.03 2.864-12.041.902-3.7 4.772-12.037 4.175-15.295-.803-.347-.745-.246-1.54-.072-.405.69-.513 1.21-.656 1.977-.63 3.381-2.229 6.826-3.349 10.085-1.586 4.613-3.002 9.31-4.751 13.864-1.607 4.182-3.65 8.193-5.414 12.309-2.3 5.366-4.387 10.822-6.684 16.191q-18.557-11.86-37.366-23.315c-3.252-1.962-6.39-4.158-9.687-6.035 2.957-4.464 6.291-8.673 9.188-13.171 6.024-9.351 14.824-25.56 18.734-35.82"/><path fill="#08112A" d="M499.238 503.755c1.06 2.807 1.746 1.891 3.392 3.686l-.236 1.224c-.415.097-1.174.338-1.627.31-1.067-.062-1.216-.352-1.83-1.119-.277-1.43.036-2.686.301-4.1M500.047 503.505l.748-.632c.524.08 1.064.168 1.595.19 1.212.05 1.933-.82 2.794-1.56-.128 1.617-.278 2.859-1.607 3.97-.56.468-.881.36-1.572.412-1.216-.762-1.32-1.139-1.958-2.38"/><path fill="#293058" d="M500.047 503.505c-.2-.436-.27-.5-.327-.996-.179-1.54.317-2.913 1.289-4.074 1.016-.382.937-.347 1.936.098l.78.442q.748 1.252 1.459 2.527c-.86.74-1.582 1.61-2.794 1.561-.53-.022-1.07-.11-1.595-.19zM532.08 480.739c1.296-.02 2.164.229 3.372.682-5.423 2.592-8.733 16.02-13.08 17.447l-.808 1.52.384.69c.732.13.665.286 1.2-.108 1.566-1.156 2.249-4.567 3.823-5.291.373 1.32.193 2.603-.512 3.788-1.761 2.961-4.088 3.857-7.272 4.622-.976 1.016-2.027 1.947-2.544 3.286l.16.475c.298.852.477 1.778.388 2.684-.17 1.72-.743 3.62-2.108 4.69-.328-.037-.658-.06-.982-.118-.232-.042-.459-.102-.688-.154-.343 1.409-.63 2.826-1.835 3.692-.51-.139-.354-.043-.872-.624-1.487-1.67-1.712-5.651-1.24-7.699.32-1.387.846-2.325 2.041-3.095.86-.063 1.378-.17 2.174.233.153.078.29.182.436.272 1.58-1.176 4.385-5.07 5.679-6.792l-.14-.95c-.52-1.727-.808-3.406.003-5.102.396-.83.807-1.276 1.694-1.517l.379.807c-.12 1.206-.436 2.796.348 3.782.268-.222.486-.376.691-.679.781-1.153.458-2.222.22-3.482-.555-2.949 7.443-10.064 9.09-13.059"/></svg>