<svg  xmlns="http://www.w3.org/2000/svg" version="1.1" xmlns:xlink="http://www.w3.org/1999/xlink" width="512" height="512" x="0" y="0" viewBox="0 0 512 512" style="enable-background:new 0 0 512 512" xml:space="preserve" class=""><g><path d="M192 32C86.112 32 0 103.776 0 192c0 46.624 23.808 89.888 65.824 120.608l-16.128 32.256c-3.008 5.984-1.952 13.248 2.656 18.112A16.017 16.017 0 0 0 64 368c2.112 0 4.256-.416 6.304-1.28l56.576-24.224c26.528 8.032 54.816 10.464 83.2 8.832 8.832-.448 15.616-8 15.136-16.832-.48-8.864-8.864-16.096-16.832-15.104-26.496 1.344-52.8-.992-77.248-9.152-3.712-1.216-7.744-1.024-11.36.48l-21.92 9.408 2.88-5.792c3.68-7.36 1.152-16.352-5.856-20.704C54.912 268.672 32 231.648 32 192c0-70.592 71.776-128 160-128s160 57.408 160 128c0 4.8-.224 9.312-1.024 13.824-1.568 8.704 4.256 17.024 12.928 18.56 8.832 1.632 16.992-4.224 18.56-12.928C383.584 205.088 384 198.72 384 192c0-88.224-86.112-160-192-160z"  fill="#f97316" opacity="1" data-original="#000000" class=""></path><path d="M457.76 415.712C491.968 391.52 512 356.64 512 320c0-70.592-71.776-128-160-128s-160 57.408-160 128c0 78.176 87.04 141.28 188.928 125.792l76.768 32.928c2.016.832 4.192 1.28 6.304 1.28 4.32 0 8.576-1.76 11.648-5.056 4.64-4.864 5.696-12.096 2.688-18.112l-20.576-41.12zm-28.704-19.616c-7.36 4.224-10.144 13.44-6.368 21.024l7.456 14.976-40.896-17.568a16.44 16.44 0 0 0-6.304-1.28c-.928 0-1.824.064-2.72.224C370.4 415.2 361.152 416 352 416c-70.592 0-128-43.072-128-96s57.408-96 128-96 128 43.072 128 96c0 29.824-18.56 57.568-50.944 76.096zM128.64 128h-.32c-8.832 0-15.84 7.168-15.84 16s7.328 16 16.16 16 16-7.168 16-16-7.168-16-16-16zM256.64 128h-.32c-8.832 0-15.84 7.168-15.84 16s7.328 16 16.16 16 16-7.168 16-16-7.168-16-16-16z" fill="#f97316" opacity="1" data-original="#000000" class=""></path><path d="M304.64 272h-.32c-8.864 0-15.84 7.168-15.84 16s7.328 16 16.16 16 16-7.168 16-16-7.168-16-16-16zM400.64 272h-.32c-8.832 0-15.84 7.168-15.84 16s7.36 16 16.16 16c8.832 0 16-7.168 16-16s-7.168-16-16-16z" fill="#f97316" opacity="1" data-original="#000000" class=""></path></g></svg>